G04 EAGLE Gerber RS-274X export*
G75*
%MOMM*%
%FSLAX34Y34*%
%LPD*%
%IN*%
%IPPOS*%
%AMOC8*
5,1,8,0,0,1.08239X$1,22.5*%
G01*
%ADD10C,0.000000*%
%ADD11C,0.254000*%


D10*
X0Y0D02*
X450000Y0D01*
X450000Y800000D01*
X0Y800000D01*
X0Y0D01*
X25000Y750000D02*
X25008Y750614D01*
X25030Y751227D01*
X25068Y751839D01*
X25120Y752450D01*
X25188Y753060D01*
X25271Y753668D01*
X25368Y754274D01*
X25480Y754877D01*
X25607Y755478D01*
X25749Y756075D01*
X25906Y756668D01*
X26076Y757257D01*
X26262Y757842D01*
X26461Y758422D01*
X26675Y758997D01*
X26903Y759567D01*
X27145Y760131D01*
X27400Y760689D01*
X27669Y761240D01*
X27952Y761785D01*
X28248Y762322D01*
X28557Y762853D01*
X28879Y763375D01*
X29213Y763889D01*
X29560Y764395D01*
X29920Y764892D01*
X30291Y765381D01*
X30675Y765860D01*
X31070Y766329D01*
X31476Y766789D01*
X31894Y767239D01*
X32322Y767678D01*
X32761Y768106D01*
X33211Y768524D01*
X33671Y768930D01*
X34140Y769325D01*
X34619Y769709D01*
X35108Y770080D01*
X35605Y770440D01*
X36111Y770787D01*
X36625Y771121D01*
X37147Y771443D01*
X37678Y771752D01*
X38215Y772048D01*
X38760Y772331D01*
X39311Y772600D01*
X39869Y772855D01*
X40433Y773097D01*
X41003Y773325D01*
X41578Y773539D01*
X42158Y773738D01*
X42743Y773924D01*
X43332Y774094D01*
X43925Y774251D01*
X44522Y774393D01*
X45123Y774520D01*
X45726Y774632D01*
X46332Y774729D01*
X46940Y774812D01*
X47550Y774880D01*
X48161Y774932D01*
X48773Y774970D01*
X49386Y774992D01*
X50000Y775000D01*
X50614Y774992D01*
X51227Y774970D01*
X51839Y774932D01*
X52450Y774880D01*
X53060Y774812D01*
X53668Y774729D01*
X54274Y774632D01*
X54877Y774520D01*
X55478Y774393D01*
X56075Y774251D01*
X56668Y774094D01*
X57257Y773924D01*
X57842Y773738D01*
X58422Y773539D01*
X58997Y773325D01*
X59567Y773097D01*
X60131Y772855D01*
X60689Y772600D01*
X61240Y772331D01*
X61785Y772048D01*
X62322Y771752D01*
X62853Y771443D01*
X63375Y771121D01*
X63889Y770787D01*
X64395Y770440D01*
X64892Y770080D01*
X65381Y769709D01*
X65860Y769325D01*
X66329Y768930D01*
X66789Y768524D01*
X67239Y768106D01*
X67678Y767678D01*
X68106Y767239D01*
X68524Y766789D01*
X68930Y766329D01*
X69325Y765860D01*
X69709Y765381D01*
X70080Y764892D01*
X70440Y764395D01*
X70787Y763889D01*
X71121Y763375D01*
X71443Y762853D01*
X71752Y762322D01*
X72048Y761785D01*
X72331Y761240D01*
X72600Y760689D01*
X72855Y760131D01*
X73097Y759567D01*
X73325Y758997D01*
X73539Y758422D01*
X73738Y757842D01*
X73924Y757257D01*
X74094Y756668D01*
X74251Y756075D01*
X74393Y755478D01*
X74520Y754877D01*
X74632Y754274D01*
X74729Y753668D01*
X74812Y753060D01*
X74880Y752450D01*
X74932Y751839D01*
X74970Y751227D01*
X74992Y750614D01*
X75000Y750000D01*
X74992Y749386D01*
X74970Y748773D01*
X74932Y748161D01*
X74880Y747550D01*
X74812Y746940D01*
X74729Y746332D01*
X74632Y745726D01*
X74520Y745123D01*
X74393Y744522D01*
X74251Y743925D01*
X74094Y743332D01*
X73924Y742743D01*
X73738Y742158D01*
X73539Y741578D01*
X73325Y741003D01*
X73097Y740433D01*
X72855Y739869D01*
X72600Y739311D01*
X72331Y738760D01*
X72048Y738215D01*
X71752Y737678D01*
X71443Y737147D01*
X71121Y736625D01*
X70787Y736111D01*
X70440Y735605D01*
X70080Y735108D01*
X69709Y734619D01*
X69325Y734140D01*
X68930Y733671D01*
X68524Y733211D01*
X68106Y732761D01*
X67678Y732322D01*
X67239Y731894D01*
X66789Y731476D01*
X66329Y731070D01*
X65860Y730675D01*
X65381Y730291D01*
X64892Y729920D01*
X64395Y729560D01*
X63889Y729213D01*
X63375Y728879D01*
X62853Y728557D01*
X62322Y728248D01*
X61785Y727952D01*
X61240Y727669D01*
X60689Y727400D01*
X60131Y727145D01*
X59567Y726903D01*
X58997Y726675D01*
X58422Y726461D01*
X57842Y726262D01*
X57257Y726076D01*
X56668Y725906D01*
X56075Y725749D01*
X55478Y725607D01*
X54877Y725480D01*
X54274Y725368D01*
X53668Y725271D01*
X53060Y725188D01*
X52450Y725120D01*
X51839Y725068D01*
X51227Y725030D01*
X50614Y725008D01*
X50000Y725000D01*
X49386Y725008D01*
X48773Y725030D01*
X48161Y725068D01*
X47550Y725120D01*
X46940Y725188D01*
X46332Y725271D01*
X45726Y725368D01*
X45123Y725480D01*
X44522Y725607D01*
X43925Y725749D01*
X43332Y725906D01*
X42743Y726076D01*
X42158Y726262D01*
X41578Y726461D01*
X41003Y726675D01*
X40433Y726903D01*
X39869Y727145D01*
X39311Y727400D01*
X38760Y727669D01*
X38215Y727952D01*
X37678Y728248D01*
X37147Y728557D01*
X36625Y728879D01*
X36111Y729213D01*
X35605Y729560D01*
X35108Y729920D01*
X34619Y730291D01*
X34140Y730675D01*
X33671Y731070D01*
X33211Y731476D01*
X32761Y731894D01*
X32322Y732322D01*
X31894Y732761D01*
X31476Y733211D01*
X31070Y733671D01*
X30675Y734140D01*
X30291Y734619D01*
X29920Y735108D01*
X29560Y735605D01*
X29213Y736111D01*
X28879Y736625D01*
X28557Y737147D01*
X28248Y737678D01*
X27952Y738215D01*
X27669Y738760D01*
X27400Y739311D01*
X27145Y739869D01*
X26903Y740433D01*
X26675Y741003D01*
X26461Y741578D01*
X26262Y742158D01*
X26076Y742743D01*
X25906Y743332D01*
X25749Y743925D01*
X25607Y744522D01*
X25480Y745123D01*
X25368Y745726D01*
X25271Y746332D01*
X25188Y746940D01*
X25120Y747550D01*
X25068Y748161D01*
X25030Y748773D01*
X25008Y749386D01*
X25000Y750000D01*
X375000Y750000D02*
X375008Y750614D01*
X375030Y751227D01*
X375068Y751839D01*
X375120Y752450D01*
X375188Y753060D01*
X375271Y753668D01*
X375368Y754274D01*
X375480Y754877D01*
X375607Y755478D01*
X375749Y756075D01*
X375906Y756668D01*
X376076Y757257D01*
X376262Y757842D01*
X376461Y758422D01*
X376675Y758997D01*
X376903Y759567D01*
X377145Y760131D01*
X377400Y760689D01*
X377669Y761240D01*
X377952Y761785D01*
X378248Y762322D01*
X378557Y762853D01*
X378879Y763375D01*
X379213Y763889D01*
X379560Y764395D01*
X379920Y764892D01*
X380291Y765381D01*
X380675Y765860D01*
X381070Y766329D01*
X381476Y766789D01*
X381894Y767239D01*
X382322Y767678D01*
X382761Y768106D01*
X383211Y768524D01*
X383671Y768930D01*
X384140Y769325D01*
X384619Y769709D01*
X385108Y770080D01*
X385605Y770440D01*
X386111Y770787D01*
X386625Y771121D01*
X387147Y771443D01*
X387678Y771752D01*
X388215Y772048D01*
X388760Y772331D01*
X389311Y772600D01*
X389869Y772855D01*
X390433Y773097D01*
X391003Y773325D01*
X391578Y773539D01*
X392158Y773738D01*
X392743Y773924D01*
X393332Y774094D01*
X393925Y774251D01*
X394522Y774393D01*
X395123Y774520D01*
X395726Y774632D01*
X396332Y774729D01*
X396940Y774812D01*
X397550Y774880D01*
X398161Y774932D01*
X398773Y774970D01*
X399386Y774992D01*
X400000Y775000D01*
X400614Y774992D01*
X401227Y774970D01*
X401839Y774932D01*
X402450Y774880D01*
X403060Y774812D01*
X403668Y774729D01*
X404274Y774632D01*
X404877Y774520D01*
X405478Y774393D01*
X406075Y774251D01*
X406668Y774094D01*
X407257Y773924D01*
X407842Y773738D01*
X408422Y773539D01*
X408997Y773325D01*
X409567Y773097D01*
X410131Y772855D01*
X410689Y772600D01*
X411240Y772331D01*
X411785Y772048D01*
X412322Y771752D01*
X412853Y771443D01*
X413375Y771121D01*
X413889Y770787D01*
X414395Y770440D01*
X414892Y770080D01*
X415381Y769709D01*
X415860Y769325D01*
X416329Y768930D01*
X416789Y768524D01*
X417239Y768106D01*
X417678Y767678D01*
X418106Y767239D01*
X418524Y766789D01*
X418930Y766329D01*
X419325Y765860D01*
X419709Y765381D01*
X420080Y764892D01*
X420440Y764395D01*
X420787Y763889D01*
X421121Y763375D01*
X421443Y762853D01*
X421752Y762322D01*
X422048Y761785D01*
X422331Y761240D01*
X422600Y760689D01*
X422855Y760131D01*
X423097Y759567D01*
X423325Y758997D01*
X423539Y758422D01*
X423738Y757842D01*
X423924Y757257D01*
X424094Y756668D01*
X424251Y756075D01*
X424393Y755478D01*
X424520Y754877D01*
X424632Y754274D01*
X424729Y753668D01*
X424812Y753060D01*
X424880Y752450D01*
X424932Y751839D01*
X424970Y751227D01*
X424992Y750614D01*
X425000Y750000D01*
X424992Y749386D01*
X424970Y748773D01*
X424932Y748161D01*
X424880Y747550D01*
X424812Y746940D01*
X424729Y746332D01*
X424632Y745726D01*
X424520Y745123D01*
X424393Y744522D01*
X424251Y743925D01*
X424094Y743332D01*
X423924Y742743D01*
X423738Y742158D01*
X423539Y741578D01*
X423325Y741003D01*
X423097Y740433D01*
X422855Y739869D01*
X422600Y739311D01*
X422331Y738760D01*
X422048Y738215D01*
X421752Y737678D01*
X421443Y737147D01*
X421121Y736625D01*
X420787Y736111D01*
X420440Y735605D01*
X420080Y735108D01*
X419709Y734619D01*
X419325Y734140D01*
X418930Y733671D01*
X418524Y733211D01*
X418106Y732761D01*
X417678Y732322D01*
X417239Y731894D01*
X416789Y731476D01*
X416329Y731070D01*
X415860Y730675D01*
X415381Y730291D01*
X414892Y729920D01*
X414395Y729560D01*
X413889Y729213D01*
X413375Y728879D01*
X412853Y728557D01*
X412322Y728248D01*
X411785Y727952D01*
X411240Y727669D01*
X410689Y727400D01*
X410131Y727145D01*
X409567Y726903D01*
X408997Y726675D01*
X408422Y726461D01*
X407842Y726262D01*
X407257Y726076D01*
X406668Y725906D01*
X406075Y725749D01*
X405478Y725607D01*
X404877Y725480D01*
X404274Y725368D01*
X403668Y725271D01*
X403060Y725188D01*
X402450Y725120D01*
X401839Y725068D01*
X401227Y725030D01*
X400614Y725008D01*
X400000Y725000D01*
X399386Y725008D01*
X398773Y725030D01*
X398161Y725068D01*
X397550Y725120D01*
X396940Y725188D01*
X396332Y725271D01*
X395726Y725368D01*
X395123Y725480D01*
X394522Y725607D01*
X393925Y725749D01*
X393332Y725906D01*
X392743Y726076D01*
X392158Y726262D01*
X391578Y726461D01*
X391003Y726675D01*
X390433Y726903D01*
X389869Y727145D01*
X389311Y727400D01*
X388760Y727669D01*
X388215Y727952D01*
X387678Y728248D01*
X387147Y728557D01*
X386625Y728879D01*
X386111Y729213D01*
X385605Y729560D01*
X385108Y729920D01*
X384619Y730291D01*
X384140Y730675D01*
X383671Y731070D01*
X383211Y731476D01*
X382761Y731894D01*
X382322Y732322D01*
X381894Y732761D01*
X381476Y733211D01*
X381070Y733671D01*
X380675Y734140D01*
X380291Y734619D01*
X379920Y735108D01*
X379560Y735605D01*
X379213Y736111D01*
X378879Y736625D01*
X378557Y737147D01*
X378248Y737678D01*
X377952Y738215D01*
X377669Y738760D01*
X377400Y739311D01*
X377145Y739869D01*
X376903Y740433D01*
X376675Y741003D01*
X376461Y741578D01*
X376262Y742158D01*
X376076Y742743D01*
X375906Y743332D01*
X375749Y743925D01*
X375607Y744522D01*
X375480Y745123D01*
X375368Y745726D01*
X375271Y746332D01*
X375188Y746940D01*
X375120Y747550D01*
X375068Y748161D01*
X375030Y748773D01*
X375008Y749386D01*
X375000Y750000D01*
X375000Y50000D02*
X375008Y50614D01*
X375030Y51227D01*
X375068Y51839D01*
X375120Y52450D01*
X375188Y53060D01*
X375271Y53668D01*
X375368Y54274D01*
X375480Y54877D01*
X375607Y55478D01*
X375749Y56075D01*
X375906Y56668D01*
X376076Y57257D01*
X376262Y57842D01*
X376461Y58422D01*
X376675Y58997D01*
X376903Y59567D01*
X377145Y60131D01*
X377400Y60689D01*
X377669Y61240D01*
X377952Y61785D01*
X378248Y62322D01*
X378557Y62853D01*
X378879Y63375D01*
X379213Y63889D01*
X379560Y64395D01*
X379920Y64892D01*
X380291Y65381D01*
X380675Y65860D01*
X381070Y66329D01*
X381476Y66789D01*
X381894Y67239D01*
X382322Y67678D01*
X382761Y68106D01*
X383211Y68524D01*
X383671Y68930D01*
X384140Y69325D01*
X384619Y69709D01*
X385108Y70080D01*
X385605Y70440D01*
X386111Y70787D01*
X386625Y71121D01*
X387147Y71443D01*
X387678Y71752D01*
X388215Y72048D01*
X388760Y72331D01*
X389311Y72600D01*
X389869Y72855D01*
X390433Y73097D01*
X391003Y73325D01*
X391578Y73539D01*
X392158Y73738D01*
X392743Y73924D01*
X393332Y74094D01*
X393925Y74251D01*
X394522Y74393D01*
X395123Y74520D01*
X395726Y74632D01*
X396332Y74729D01*
X396940Y74812D01*
X397550Y74880D01*
X398161Y74932D01*
X398773Y74970D01*
X399386Y74992D01*
X400000Y75000D01*
X400614Y74992D01*
X401227Y74970D01*
X401839Y74932D01*
X402450Y74880D01*
X403060Y74812D01*
X403668Y74729D01*
X404274Y74632D01*
X404877Y74520D01*
X405478Y74393D01*
X406075Y74251D01*
X406668Y74094D01*
X407257Y73924D01*
X407842Y73738D01*
X408422Y73539D01*
X408997Y73325D01*
X409567Y73097D01*
X410131Y72855D01*
X410689Y72600D01*
X411240Y72331D01*
X411785Y72048D01*
X412322Y71752D01*
X412853Y71443D01*
X413375Y71121D01*
X413889Y70787D01*
X414395Y70440D01*
X414892Y70080D01*
X415381Y69709D01*
X415860Y69325D01*
X416329Y68930D01*
X416789Y68524D01*
X417239Y68106D01*
X417678Y67678D01*
X418106Y67239D01*
X418524Y66789D01*
X418930Y66329D01*
X419325Y65860D01*
X419709Y65381D01*
X420080Y64892D01*
X420440Y64395D01*
X420787Y63889D01*
X421121Y63375D01*
X421443Y62853D01*
X421752Y62322D01*
X422048Y61785D01*
X422331Y61240D01*
X422600Y60689D01*
X422855Y60131D01*
X423097Y59567D01*
X423325Y58997D01*
X423539Y58422D01*
X423738Y57842D01*
X423924Y57257D01*
X424094Y56668D01*
X424251Y56075D01*
X424393Y55478D01*
X424520Y54877D01*
X424632Y54274D01*
X424729Y53668D01*
X424812Y53060D01*
X424880Y52450D01*
X424932Y51839D01*
X424970Y51227D01*
X424992Y50614D01*
X425000Y50000D01*
X424992Y49386D01*
X424970Y48773D01*
X424932Y48161D01*
X424880Y47550D01*
X424812Y46940D01*
X424729Y46332D01*
X424632Y45726D01*
X424520Y45123D01*
X424393Y44522D01*
X424251Y43925D01*
X424094Y43332D01*
X423924Y42743D01*
X423738Y42158D01*
X423539Y41578D01*
X423325Y41003D01*
X423097Y40433D01*
X422855Y39869D01*
X422600Y39311D01*
X422331Y38760D01*
X422048Y38215D01*
X421752Y37678D01*
X421443Y37147D01*
X421121Y36625D01*
X420787Y36111D01*
X420440Y35605D01*
X420080Y35108D01*
X419709Y34619D01*
X419325Y34140D01*
X418930Y33671D01*
X418524Y33211D01*
X418106Y32761D01*
X417678Y32322D01*
X417239Y31894D01*
X416789Y31476D01*
X416329Y31070D01*
X415860Y30675D01*
X415381Y30291D01*
X414892Y29920D01*
X414395Y29560D01*
X413889Y29213D01*
X413375Y28879D01*
X412853Y28557D01*
X412322Y28248D01*
X411785Y27952D01*
X411240Y27669D01*
X410689Y27400D01*
X410131Y27145D01*
X409567Y26903D01*
X408997Y26675D01*
X408422Y26461D01*
X407842Y26262D01*
X407257Y26076D01*
X406668Y25906D01*
X406075Y25749D01*
X405478Y25607D01*
X404877Y25480D01*
X404274Y25368D01*
X403668Y25271D01*
X403060Y25188D01*
X402450Y25120D01*
X401839Y25068D01*
X401227Y25030D01*
X400614Y25008D01*
X400000Y25000D01*
X399386Y25008D01*
X398773Y25030D01*
X398161Y25068D01*
X397550Y25120D01*
X396940Y25188D01*
X396332Y25271D01*
X395726Y25368D01*
X395123Y25480D01*
X394522Y25607D01*
X393925Y25749D01*
X393332Y25906D01*
X392743Y26076D01*
X392158Y26262D01*
X391578Y26461D01*
X391003Y26675D01*
X390433Y26903D01*
X389869Y27145D01*
X389311Y27400D01*
X388760Y27669D01*
X388215Y27952D01*
X387678Y28248D01*
X387147Y28557D01*
X386625Y28879D01*
X386111Y29213D01*
X385605Y29560D01*
X385108Y29920D01*
X384619Y30291D01*
X384140Y30675D01*
X383671Y31070D01*
X383211Y31476D01*
X382761Y31894D01*
X382322Y32322D01*
X381894Y32761D01*
X381476Y33211D01*
X381070Y33671D01*
X380675Y34140D01*
X380291Y34619D01*
X379920Y35108D01*
X379560Y35605D01*
X379213Y36111D01*
X378879Y36625D01*
X378557Y37147D01*
X378248Y37678D01*
X377952Y38215D01*
X377669Y38760D01*
X377400Y39311D01*
X377145Y39869D01*
X376903Y40433D01*
X376675Y41003D01*
X376461Y41578D01*
X376262Y42158D01*
X376076Y42743D01*
X375906Y43332D01*
X375749Y43925D01*
X375607Y44522D01*
X375480Y45123D01*
X375368Y45726D01*
X375271Y46332D01*
X375188Y46940D01*
X375120Y47550D01*
X375068Y48161D01*
X375030Y48773D01*
X375008Y49386D01*
X375000Y50000D01*
X25000Y50000D02*
X25008Y50614D01*
X25030Y51227D01*
X25068Y51839D01*
X25120Y52450D01*
X25188Y53060D01*
X25271Y53668D01*
X25368Y54274D01*
X25480Y54877D01*
X25607Y55478D01*
X25749Y56075D01*
X25906Y56668D01*
X26076Y57257D01*
X26262Y57842D01*
X26461Y58422D01*
X26675Y58997D01*
X26903Y59567D01*
X27145Y60131D01*
X27400Y60689D01*
X27669Y61240D01*
X27952Y61785D01*
X28248Y62322D01*
X28557Y62853D01*
X28879Y63375D01*
X29213Y63889D01*
X29560Y64395D01*
X29920Y64892D01*
X30291Y65381D01*
X30675Y65860D01*
X31070Y66329D01*
X31476Y66789D01*
X31894Y67239D01*
X32322Y67678D01*
X32761Y68106D01*
X33211Y68524D01*
X33671Y68930D01*
X34140Y69325D01*
X34619Y69709D01*
X35108Y70080D01*
X35605Y70440D01*
X36111Y70787D01*
X36625Y71121D01*
X37147Y71443D01*
X37678Y71752D01*
X38215Y72048D01*
X38760Y72331D01*
X39311Y72600D01*
X39869Y72855D01*
X40433Y73097D01*
X41003Y73325D01*
X41578Y73539D01*
X42158Y73738D01*
X42743Y73924D01*
X43332Y74094D01*
X43925Y74251D01*
X44522Y74393D01*
X45123Y74520D01*
X45726Y74632D01*
X46332Y74729D01*
X46940Y74812D01*
X47550Y74880D01*
X48161Y74932D01*
X48773Y74970D01*
X49386Y74992D01*
X50000Y75000D01*
X50614Y74992D01*
X51227Y74970D01*
X51839Y74932D01*
X52450Y74880D01*
X53060Y74812D01*
X53668Y74729D01*
X54274Y74632D01*
X54877Y74520D01*
X55478Y74393D01*
X56075Y74251D01*
X56668Y74094D01*
X57257Y73924D01*
X57842Y73738D01*
X58422Y73539D01*
X58997Y73325D01*
X59567Y73097D01*
X60131Y72855D01*
X60689Y72600D01*
X61240Y72331D01*
X61785Y72048D01*
X62322Y71752D01*
X62853Y71443D01*
X63375Y71121D01*
X63889Y70787D01*
X64395Y70440D01*
X64892Y70080D01*
X65381Y69709D01*
X65860Y69325D01*
X66329Y68930D01*
X66789Y68524D01*
X67239Y68106D01*
X67678Y67678D01*
X68106Y67239D01*
X68524Y66789D01*
X68930Y66329D01*
X69325Y65860D01*
X69709Y65381D01*
X70080Y64892D01*
X70440Y64395D01*
X70787Y63889D01*
X71121Y63375D01*
X71443Y62853D01*
X71752Y62322D01*
X72048Y61785D01*
X72331Y61240D01*
X72600Y60689D01*
X72855Y60131D01*
X73097Y59567D01*
X73325Y58997D01*
X73539Y58422D01*
X73738Y57842D01*
X73924Y57257D01*
X74094Y56668D01*
X74251Y56075D01*
X74393Y55478D01*
X74520Y54877D01*
X74632Y54274D01*
X74729Y53668D01*
X74812Y53060D01*
X74880Y52450D01*
X74932Y51839D01*
X74970Y51227D01*
X74992Y50614D01*
X75000Y50000D01*
X74992Y49386D01*
X74970Y48773D01*
X74932Y48161D01*
X74880Y47550D01*
X74812Y46940D01*
X74729Y46332D01*
X74632Y45726D01*
X74520Y45123D01*
X74393Y44522D01*
X74251Y43925D01*
X74094Y43332D01*
X73924Y42743D01*
X73738Y42158D01*
X73539Y41578D01*
X73325Y41003D01*
X73097Y40433D01*
X72855Y39869D01*
X72600Y39311D01*
X72331Y38760D01*
X72048Y38215D01*
X71752Y37678D01*
X71443Y37147D01*
X71121Y36625D01*
X70787Y36111D01*
X70440Y35605D01*
X70080Y35108D01*
X69709Y34619D01*
X69325Y34140D01*
X68930Y33671D01*
X68524Y33211D01*
X68106Y32761D01*
X67678Y32322D01*
X67239Y31894D01*
X66789Y31476D01*
X66329Y31070D01*
X65860Y30675D01*
X65381Y30291D01*
X64892Y29920D01*
X64395Y29560D01*
X63889Y29213D01*
X63375Y28879D01*
X62853Y28557D01*
X62322Y28248D01*
X61785Y27952D01*
X61240Y27669D01*
X60689Y27400D01*
X60131Y27145D01*
X59567Y26903D01*
X58997Y26675D01*
X58422Y26461D01*
X57842Y26262D01*
X57257Y26076D01*
X56668Y25906D01*
X56075Y25749D01*
X55478Y25607D01*
X54877Y25480D01*
X54274Y25368D01*
X53668Y25271D01*
X53060Y25188D01*
X52450Y25120D01*
X51839Y25068D01*
X51227Y25030D01*
X50614Y25008D01*
X50000Y25000D01*
X49386Y25008D01*
X48773Y25030D01*
X48161Y25068D01*
X47550Y25120D01*
X46940Y25188D01*
X46332Y25271D01*
X45726Y25368D01*
X45123Y25480D01*
X44522Y25607D01*
X43925Y25749D01*
X43332Y25906D01*
X42743Y26076D01*
X42158Y26262D01*
X41578Y26461D01*
X41003Y26675D01*
X40433Y26903D01*
X39869Y27145D01*
X39311Y27400D01*
X38760Y27669D01*
X38215Y27952D01*
X37678Y28248D01*
X37147Y28557D01*
X36625Y28879D01*
X36111Y29213D01*
X35605Y29560D01*
X35108Y29920D01*
X34619Y30291D01*
X34140Y30675D01*
X33671Y31070D01*
X33211Y31476D01*
X32761Y31894D01*
X32322Y32322D01*
X31894Y32761D01*
X31476Y33211D01*
X31070Y33671D01*
X30675Y34140D01*
X30291Y34619D01*
X29920Y35108D01*
X29560Y35605D01*
X29213Y36111D01*
X28879Y36625D01*
X28557Y37147D01*
X28248Y37678D01*
X27952Y38215D01*
X27669Y38760D01*
X27400Y39311D01*
X27145Y39869D01*
X26903Y40433D01*
X26675Y41003D01*
X26461Y41578D01*
X26262Y42158D01*
X26076Y42743D01*
X25906Y43332D01*
X25749Y43925D01*
X25607Y44522D01*
X25480Y45123D01*
X25368Y45726D01*
X25271Y46332D01*
X25188Y46940D01*
X25120Y47550D01*
X25068Y48161D01*
X25030Y48773D01*
X25008Y49386D01*
X25000Y50000D01*
X192981Y18119D02*
X192983Y18212D01*
X192989Y18305D01*
X192998Y18397D01*
X193012Y18489D01*
X193029Y18581D01*
X193050Y18671D01*
X193075Y18761D01*
X193103Y18850D01*
X193135Y18937D01*
X193171Y19023D01*
X193210Y19107D01*
X193252Y19190D01*
X193298Y19271D01*
X193347Y19350D01*
X193400Y19426D01*
X193455Y19501D01*
X193514Y19573D01*
X193576Y19643D01*
X193640Y19710D01*
X193707Y19774D01*
X193777Y19836D01*
X193849Y19895D01*
X193924Y19950D01*
X194000Y20003D01*
X194079Y20052D01*
X194160Y20098D01*
X194243Y20140D01*
X194327Y20179D01*
X194413Y20215D01*
X194500Y20247D01*
X194589Y20275D01*
X194679Y20300D01*
X194769Y20321D01*
X194861Y20338D01*
X194953Y20352D01*
X195045Y20361D01*
X195138Y20367D01*
X195231Y20369D01*
X195324Y20367D01*
X195417Y20361D01*
X195509Y20352D01*
X195601Y20338D01*
X195693Y20321D01*
X195783Y20300D01*
X195873Y20275D01*
X195962Y20247D01*
X196049Y20215D01*
X196135Y20179D01*
X196219Y20140D01*
X196302Y20098D01*
X196383Y20052D01*
X196462Y20003D01*
X196538Y19950D01*
X196613Y19895D01*
X196685Y19836D01*
X196755Y19774D01*
X196822Y19710D01*
X196886Y19643D01*
X196948Y19573D01*
X197007Y19501D01*
X197062Y19426D01*
X197115Y19350D01*
X197164Y19271D01*
X197210Y19190D01*
X197252Y19107D01*
X197291Y19023D01*
X197327Y18937D01*
X197359Y18850D01*
X197387Y18761D01*
X197412Y18671D01*
X197433Y18581D01*
X197450Y18489D01*
X197464Y18397D01*
X197473Y18305D01*
X197479Y18212D01*
X197481Y18119D01*
X192981Y18119D02*
X192981Y10119D01*
X197481Y10119D02*
X197481Y18119D01*
X192981Y10119D02*
X192983Y10026D01*
X192989Y9933D01*
X192998Y9841D01*
X193012Y9749D01*
X193029Y9657D01*
X193050Y9567D01*
X193075Y9477D01*
X193103Y9388D01*
X193135Y9301D01*
X193171Y9215D01*
X193210Y9131D01*
X193252Y9048D01*
X193298Y8967D01*
X193347Y8888D01*
X193400Y8812D01*
X193455Y8737D01*
X193514Y8665D01*
X193576Y8595D01*
X193640Y8528D01*
X193707Y8464D01*
X193777Y8402D01*
X193849Y8343D01*
X193924Y8288D01*
X194000Y8235D01*
X194079Y8186D01*
X194160Y8140D01*
X194243Y8098D01*
X194327Y8059D01*
X194413Y8023D01*
X194500Y7991D01*
X194589Y7963D01*
X194679Y7938D01*
X194769Y7917D01*
X194861Y7900D01*
X194953Y7886D01*
X195045Y7877D01*
X195138Y7871D01*
X195231Y7869D01*
X195324Y7871D01*
X195417Y7877D01*
X195509Y7886D01*
X195601Y7900D01*
X195693Y7917D01*
X195783Y7938D01*
X195873Y7963D01*
X195962Y7991D01*
X196049Y8023D01*
X196135Y8059D01*
X196219Y8098D01*
X196302Y8140D01*
X196383Y8186D01*
X196462Y8235D01*
X196538Y8288D01*
X196613Y8343D01*
X196685Y8402D01*
X196755Y8464D01*
X196822Y8528D01*
X196886Y8595D01*
X196948Y8665D01*
X197007Y8737D01*
X197062Y8812D01*
X197115Y8888D01*
X197164Y8967D01*
X197210Y9048D01*
X197252Y9131D01*
X197291Y9215D01*
X197327Y9301D01*
X197359Y9388D01*
X197387Y9477D01*
X197412Y9567D01*
X197433Y9657D01*
X197450Y9749D01*
X197464Y9841D01*
X197473Y9933D01*
X197479Y10026D01*
X197481Y10119D01*
X264481Y18119D02*
X264483Y18212D01*
X264489Y18305D01*
X264498Y18397D01*
X264512Y18489D01*
X264529Y18581D01*
X264550Y18671D01*
X264575Y18761D01*
X264603Y18850D01*
X264635Y18937D01*
X264671Y19023D01*
X264710Y19107D01*
X264752Y19190D01*
X264798Y19271D01*
X264847Y19350D01*
X264900Y19426D01*
X264955Y19501D01*
X265014Y19573D01*
X265076Y19643D01*
X265140Y19710D01*
X265207Y19774D01*
X265277Y19836D01*
X265349Y19895D01*
X265424Y19950D01*
X265500Y20003D01*
X265579Y20052D01*
X265660Y20098D01*
X265743Y20140D01*
X265827Y20179D01*
X265913Y20215D01*
X266000Y20247D01*
X266089Y20275D01*
X266179Y20300D01*
X266269Y20321D01*
X266361Y20338D01*
X266453Y20352D01*
X266545Y20361D01*
X266638Y20367D01*
X266731Y20369D01*
X266824Y20367D01*
X266917Y20361D01*
X267009Y20352D01*
X267101Y20338D01*
X267193Y20321D01*
X267283Y20300D01*
X267373Y20275D01*
X267462Y20247D01*
X267549Y20215D01*
X267635Y20179D01*
X267719Y20140D01*
X267802Y20098D01*
X267883Y20052D01*
X267962Y20003D01*
X268038Y19950D01*
X268113Y19895D01*
X268185Y19836D01*
X268255Y19774D01*
X268322Y19710D01*
X268386Y19643D01*
X268448Y19573D01*
X268507Y19501D01*
X268562Y19426D01*
X268615Y19350D01*
X268664Y19271D01*
X268710Y19190D01*
X268752Y19107D01*
X268791Y19023D01*
X268827Y18937D01*
X268859Y18850D01*
X268887Y18761D01*
X268912Y18671D01*
X268933Y18581D01*
X268950Y18489D01*
X268964Y18397D01*
X268973Y18305D01*
X268979Y18212D01*
X268981Y18119D01*
X264481Y18119D02*
X264481Y10119D01*
X268981Y10119D02*
X268981Y18119D01*
X264481Y10119D02*
X264483Y10026D01*
X264489Y9933D01*
X264498Y9841D01*
X264512Y9749D01*
X264529Y9657D01*
X264550Y9567D01*
X264575Y9477D01*
X264603Y9388D01*
X264635Y9301D01*
X264671Y9215D01*
X264710Y9131D01*
X264752Y9048D01*
X264798Y8967D01*
X264847Y8888D01*
X264900Y8812D01*
X264955Y8737D01*
X265014Y8665D01*
X265076Y8595D01*
X265140Y8528D01*
X265207Y8464D01*
X265277Y8402D01*
X265349Y8343D01*
X265424Y8288D01*
X265500Y8235D01*
X265579Y8186D01*
X265660Y8140D01*
X265743Y8098D01*
X265827Y8059D01*
X265913Y8023D01*
X266000Y7991D01*
X266089Y7963D01*
X266179Y7938D01*
X266269Y7917D01*
X266361Y7900D01*
X266453Y7886D01*
X266545Y7877D01*
X266638Y7871D01*
X266731Y7869D01*
X266824Y7871D01*
X266917Y7877D01*
X267009Y7886D01*
X267101Y7900D01*
X267193Y7917D01*
X267283Y7938D01*
X267373Y7963D01*
X267462Y7991D01*
X267549Y8023D01*
X267635Y8059D01*
X267719Y8098D01*
X267802Y8140D01*
X267883Y8186D01*
X267962Y8235D01*
X268038Y8288D01*
X268113Y8343D01*
X268185Y8402D01*
X268255Y8464D01*
X268322Y8528D01*
X268386Y8595D01*
X268448Y8665D01*
X268507Y8737D01*
X268562Y8812D01*
X268615Y8888D01*
X268664Y8967D01*
X268710Y9048D01*
X268752Y9131D01*
X268791Y9215D01*
X268827Y9301D01*
X268859Y9388D01*
X268887Y9477D01*
X268912Y9567D01*
X268933Y9657D01*
X268950Y9749D01*
X268964Y9841D01*
X268973Y9933D01*
X268979Y10026D01*
X268981Y10119D01*
D11*
X0Y0D02*
X450000Y0D01*
X450000Y800000D01*
X0Y800000D01*
X0Y0D01*
X264481Y10119D02*
X264489Y9923D01*
X264515Y9728D01*
X264557Y9537D01*
X264617Y9349D01*
X264692Y9168D01*
X264782Y8994D01*
X264888Y8828D01*
X265007Y8673D01*
X265140Y8528D01*
X265285Y8395D01*
X265440Y8276D01*
X265606Y8170D01*
X265780Y8080D01*
X265961Y8005D01*
X266148Y7946D01*
X266340Y7903D01*
X266535Y7878D01*
X266731Y7869D01*
X266927Y7878D01*
X267122Y7903D01*
X267313Y7946D01*
X267500Y8005D01*
X267682Y8080D01*
X267856Y8170D01*
X268021Y8276D01*
X268177Y8395D01*
X268322Y8528D01*
X268454Y8673D01*
X268574Y8828D01*
X268679Y8994D01*
X268770Y9168D01*
X268845Y9349D01*
X268904Y9537D01*
X268947Y9728D01*
X268972Y9923D01*
X268981Y10119D01*
X268981Y18119D01*
X268972Y18315D01*
X268947Y18510D01*
X268904Y18701D01*
X268845Y18889D01*
X268770Y19070D01*
X268679Y19244D01*
X268574Y19410D01*
X268454Y19565D01*
X268322Y19710D01*
X268177Y19843D01*
X268021Y19962D01*
X267856Y20068D01*
X267682Y20158D01*
X267500Y20233D01*
X267313Y20292D01*
X267122Y20335D01*
X266927Y20360D01*
X266731Y20369D01*
X266535Y20360D01*
X266340Y20335D01*
X266148Y20292D01*
X265961Y20233D01*
X265780Y20158D01*
X265606Y20068D01*
X265440Y19962D01*
X265285Y19843D01*
X265140Y19710D01*
X265007Y19565D01*
X264888Y19410D01*
X264782Y19244D01*
X264692Y19070D01*
X264617Y18889D01*
X264557Y18701D01*
X264515Y18510D01*
X264489Y18315D01*
X264481Y18119D01*
X264481Y10119D01*
X192981Y10119D02*
X192989Y9923D01*
X193015Y9728D01*
X193057Y9537D01*
X193117Y9349D01*
X193192Y9168D01*
X193282Y8994D01*
X193388Y8828D01*
X193507Y8673D01*
X193640Y8528D01*
X193785Y8395D01*
X193940Y8276D01*
X194106Y8170D01*
X194280Y8080D01*
X194461Y8005D01*
X194648Y7946D01*
X194840Y7903D01*
X195035Y7878D01*
X195231Y7869D01*
X195427Y7878D01*
X195622Y7903D01*
X195813Y7946D01*
X196000Y8005D01*
X196182Y8080D01*
X196356Y8170D01*
X196521Y8276D01*
X196677Y8395D01*
X196822Y8528D01*
X196954Y8673D01*
X197074Y8828D01*
X197179Y8994D01*
X197270Y9168D01*
X197345Y9349D01*
X197404Y9537D01*
X197447Y9728D01*
X197472Y9923D01*
X197481Y10119D01*
X197481Y18119D01*
X197472Y18315D01*
X197447Y18510D01*
X197404Y18701D01*
X197345Y18889D01*
X197270Y19070D01*
X197179Y19244D01*
X197074Y19410D01*
X196954Y19565D01*
X196822Y19710D01*
X196677Y19843D01*
X196521Y19962D01*
X196356Y20068D01*
X196182Y20158D01*
X196000Y20233D01*
X195813Y20292D01*
X195622Y20335D01*
X195427Y20360D01*
X195231Y20369D01*
X195035Y20360D01*
X194840Y20335D01*
X194648Y20292D01*
X194461Y20233D01*
X194280Y20158D01*
X194106Y20068D01*
X193940Y19962D01*
X193785Y19843D01*
X193640Y19710D01*
X193507Y19565D01*
X193388Y19410D01*
X193282Y19244D01*
X193192Y19070D01*
X193117Y18889D01*
X193057Y18701D01*
X193015Y18510D01*
X192989Y18315D01*
X192981Y18119D01*
X192981Y10119D01*
X75000Y749299D02*
X74921Y747898D01*
X74764Y746504D01*
X74529Y745121D01*
X74217Y743753D01*
X73829Y742405D01*
X73365Y741081D01*
X72829Y739785D01*
X72220Y738521D01*
X71541Y737293D01*
X70795Y736105D01*
X69983Y734961D01*
X69108Y733864D01*
X68174Y732818D01*
X67182Y731826D01*
X66136Y730892D01*
X65039Y730017D01*
X63895Y729205D01*
X62707Y728459D01*
X61479Y727780D01*
X60215Y727171D01*
X58919Y726635D01*
X57595Y726171D01*
X56247Y725783D01*
X54879Y725471D01*
X53496Y725236D01*
X52102Y725079D01*
X50701Y725000D01*
X49299Y725000D01*
X47898Y725079D01*
X46504Y725236D01*
X45121Y725471D01*
X43753Y725783D01*
X42405Y726171D01*
X41081Y726635D01*
X39785Y727171D01*
X38521Y727780D01*
X37293Y728459D01*
X36105Y729205D01*
X34961Y730017D01*
X33864Y730892D01*
X32818Y731826D01*
X31826Y732818D01*
X30892Y733864D01*
X30017Y734961D01*
X29205Y736105D01*
X28459Y737293D01*
X27780Y738521D01*
X27171Y739785D01*
X26635Y741081D01*
X26171Y742405D01*
X25783Y743753D01*
X25471Y745121D01*
X25236Y746504D01*
X25079Y747898D01*
X25000Y749299D01*
X25000Y750701D01*
X25079Y752102D01*
X25236Y753496D01*
X25471Y754879D01*
X25783Y756247D01*
X26171Y757595D01*
X26635Y758919D01*
X27171Y760215D01*
X27780Y761479D01*
X28459Y762707D01*
X29205Y763895D01*
X30017Y765039D01*
X30892Y766136D01*
X31826Y767182D01*
X32818Y768174D01*
X33864Y769108D01*
X34961Y769983D01*
X36105Y770795D01*
X37293Y771541D01*
X38521Y772220D01*
X39785Y772829D01*
X41081Y773365D01*
X42405Y773829D01*
X43753Y774217D01*
X45121Y774529D01*
X46504Y774764D01*
X47898Y774921D01*
X49299Y775000D01*
X50701Y775000D01*
X52102Y774921D01*
X53496Y774764D01*
X54879Y774529D01*
X56247Y774217D01*
X57595Y773829D01*
X58919Y773365D01*
X60215Y772829D01*
X61479Y772220D01*
X62707Y771541D01*
X63895Y770795D01*
X65039Y769983D01*
X66136Y769108D01*
X67182Y768174D01*
X68174Y767182D01*
X69108Y766136D01*
X69983Y765039D01*
X70795Y763895D01*
X71541Y762707D01*
X72220Y761479D01*
X72829Y760215D01*
X73365Y758919D01*
X73829Y757595D01*
X74217Y756247D01*
X74529Y754879D01*
X74764Y753496D01*
X74921Y752102D01*
X75000Y750701D01*
X75000Y749299D01*
X425000Y749299D02*
X424921Y747898D01*
X424764Y746504D01*
X424529Y745121D01*
X424217Y743753D01*
X423829Y742405D01*
X423365Y741081D01*
X422829Y739785D01*
X422220Y738521D01*
X421541Y737293D01*
X420795Y736105D01*
X419983Y734961D01*
X419108Y733864D01*
X418174Y732818D01*
X417182Y731826D01*
X416136Y730892D01*
X415039Y730017D01*
X413895Y729205D01*
X412707Y728459D01*
X411479Y727780D01*
X410215Y727171D01*
X408919Y726635D01*
X407595Y726171D01*
X406247Y725783D01*
X404879Y725471D01*
X403496Y725236D01*
X402102Y725079D01*
X400701Y725000D01*
X399299Y725000D01*
X397898Y725079D01*
X396504Y725236D01*
X395121Y725471D01*
X393753Y725783D01*
X392405Y726171D01*
X391081Y726635D01*
X389785Y727171D01*
X388521Y727780D01*
X387293Y728459D01*
X386105Y729205D01*
X384961Y730017D01*
X383864Y730892D01*
X382818Y731826D01*
X381826Y732818D01*
X380892Y733864D01*
X380017Y734961D01*
X379205Y736105D01*
X378459Y737293D01*
X377780Y738521D01*
X377171Y739785D01*
X376635Y741081D01*
X376171Y742405D01*
X375783Y743753D01*
X375471Y745121D01*
X375236Y746504D01*
X375079Y747898D01*
X375000Y749299D01*
X375000Y750701D01*
X375079Y752102D01*
X375236Y753496D01*
X375471Y754879D01*
X375783Y756247D01*
X376171Y757595D01*
X376635Y758919D01*
X377171Y760215D01*
X377780Y761479D01*
X378459Y762707D01*
X379205Y763895D01*
X380017Y765039D01*
X380892Y766136D01*
X381826Y767182D01*
X382818Y768174D01*
X383864Y769108D01*
X384961Y769983D01*
X386105Y770795D01*
X387293Y771541D01*
X388521Y772220D01*
X389785Y772829D01*
X391081Y773365D01*
X392405Y773829D01*
X393753Y774217D01*
X395121Y774529D01*
X396504Y774764D01*
X397898Y774921D01*
X399299Y775000D01*
X400701Y775000D01*
X402102Y774921D01*
X403496Y774764D01*
X404879Y774529D01*
X406247Y774217D01*
X407595Y773829D01*
X408919Y773365D01*
X410215Y772829D01*
X411479Y772220D01*
X412707Y771541D01*
X413895Y770795D01*
X415039Y769983D01*
X416136Y769108D01*
X417182Y768174D01*
X418174Y767182D01*
X419108Y766136D01*
X419983Y765039D01*
X420795Y763895D01*
X421541Y762707D01*
X422220Y761479D01*
X422829Y760215D01*
X423365Y758919D01*
X423829Y757595D01*
X424217Y756247D01*
X424529Y754879D01*
X424764Y753496D01*
X424921Y752102D01*
X425000Y750701D01*
X425000Y749299D01*
X425000Y49299D02*
X424921Y47898D01*
X424764Y46504D01*
X424529Y45121D01*
X424217Y43753D01*
X423829Y42405D01*
X423365Y41081D01*
X422829Y39785D01*
X422220Y38521D01*
X421541Y37293D01*
X420795Y36105D01*
X419983Y34961D01*
X419108Y33864D01*
X418174Y32818D01*
X417182Y31826D01*
X416136Y30892D01*
X415039Y30017D01*
X413895Y29205D01*
X412707Y28459D01*
X411479Y27780D01*
X410215Y27171D01*
X408919Y26635D01*
X407595Y26171D01*
X406247Y25783D01*
X404879Y25471D01*
X403496Y25236D01*
X402102Y25079D01*
X400701Y25000D01*
X399299Y25000D01*
X397898Y25079D01*
X396504Y25236D01*
X395121Y25471D01*
X393753Y25783D01*
X392405Y26171D01*
X391081Y26635D01*
X389785Y27171D01*
X388521Y27780D01*
X387293Y28459D01*
X386105Y29205D01*
X384961Y30017D01*
X383864Y30892D01*
X382818Y31826D01*
X381826Y32818D01*
X380892Y33864D01*
X380017Y34961D01*
X379205Y36105D01*
X378459Y37293D01*
X377780Y38521D01*
X377171Y39785D01*
X376635Y41081D01*
X376171Y42405D01*
X375783Y43753D01*
X375471Y45121D01*
X375236Y46504D01*
X375079Y47898D01*
X375000Y49299D01*
X375000Y50701D01*
X375079Y52102D01*
X375236Y53496D01*
X375471Y54879D01*
X375783Y56247D01*
X376171Y57595D01*
X376635Y58919D01*
X377171Y60215D01*
X377780Y61479D01*
X378459Y62707D01*
X379205Y63895D01*
X380017Y65039D01*
X380892Y66136D01*
X381826Y67182D01*
X382818Y68174D01*
X383864Y69108D01*
X384961Y69983D01*
X386105Y70795D01*
X387293Y71541D01*
X388521Y72220D01*
X389785Y72829D01*
X391081Y73365D01*
X392405Y73829D01*
X393753Y74217D01*
X395121Y74529D01*
X396504Y74764D01*
X397898Y74921D01*
X399299Y75000D01*
X400701Y75000D01*
X402102Y74921D01*
X403496Y74764D01*
X404879Y74529D01*
X406247Y74217D01*
X407595Y73829D01*
X408919Y73365D01*
X410215Y72829D01*
X411479Y72220D01*
X412707Y71541D01*
X413895Y70795D01*
X415039Y69983D01*
X416136Y69108D01*
X417182Y68174D01*
X418174Y67182D01*
X419108Y66136D01*
X419983Y65039D01*
X420795Y63895D01*
X421541Y62707D01*
X422220Y61479D01*
X422829Y60215D01*
X423365Y58919D01*
X423829Y57595D01*
X424217Y56247D01*
X424529Y54879D01*
X424764Y53496D01*
X424921Y52102D01*
X425000Y50701D01*
X425000Y49299D01*
X75000Y49299D02*
X74921Y47898D01*
X74764Y46504D01*
X74529Y45121D01*
X74217Y43753D01*
X73829Y42405D01*
X73365Y41081D01*
X72829Y39785D01*
X72220Y38521D01*
X71541Y37293D01*
X70795Y36105D01*
X69983Y34961D01*
X69108Y33864D01*
X68174Y32818D01*
X67182Y31826D01*
X66136Y30892D01*
X65039Y30017D01*
X63895Y29205D01*
X62707Y28459D01*
X61479Y27780D01*
X60215Y27171D01*
X58919Y26635D01*
X57595Y26171D01*
X56247Y25783D01*
X54879Y25471D01*
X53496Y25236D01*
X52102Y25079D01*
X50701Y25000D01*
X49299Y25000D01*
X47898Y25079D01*
X46504Y25236D01*
X45121Y25471D01*
X43753Y25783D01*
X42405Y26171D01*
X41081Y26635D01*
X39785Y27171D01*
X38521Y27780D01*
X37293Y28459D01*
X36105Y29205D01*
X34961Y30017D01*
X33864Y30892D01*
X32818Y31826D01*
X31826Y32818D01*
X30892Y33864D01*
X30017Y34961D01*
X29205Y36105D01*
X28459Y37293D01*
X27780Y38521D01*
X27171Y39785D01*
X26635Y41081D01*
X26171Y42405D01*
X25783Y43753D01*
X25471Y45121D01*
X25236Y46504D01*
X25079Y47898D01*
X25000Y49299D01*
X25000Y50701D01*
X25079Y52102D01*
X25236Y53496D01*
X25471Y54879D01*
X25783Y56247D01*
X26171Y57595D01*
X26635Y58919D01*
X27171Y60215D01*
X27780Y61479D01*
X28459Y62707D01*
X29205Y63895D01*
X30017Y65039D01*
X30892Y66136D01*
X31826Y67182D01*
X32818Y68174D01*
X33864Y69108D01*
X34961Y69983D01*
X36105Y70795D01*
X37293Y71541D01*
X38521Y72220D01*
X39785Y72829D01*
X41081Y73365D01*
X42405Y73829D01*
X43753Y74217D01*
X45121Y74529D01*
X46504Y74764D01*
X47898Y74921D01*
X49299Y75000D01*
X50701Y75000D01*
X52102Y74921D01*
X53496Y74764D01*
X54879Y74529D01*
X56247Y74217D01*
X57595Y73829D01*
X58919Y73365D01*
X60215Y72829D01*
X61479Y72220D01*
X62707Y71541D01*
X63895Y70795D01*
X65039Y69983D01*
X66136Y69108D01*
X67182Y68174D01*
X68174Y67182D01*
X69108Y66136D01*
X69983Y65039D01*
X70795Y63895D01*
X71541Y62707D01*
X72220Y61479D01*
X72829Y60215D01*
X73365Y58919D01*
X73829Y57595D01*
X74217Y56247D01*
X74529Y54879D01*
X74764Y53496D01*
X74921Y52102D01*
X75000Y50701D01*
X75000Y49299D01*
M02*
