G04 EAGLE Gerber RS-274X export*
G75*
%MOMM*%
%FSLAX34Y34*%
%LPD*%
%INSolderpaste Bottom*%
%IPPOS*%
%AMOC8*
5,1,8,0,0,1.08239X$1,22.5*%
G01*
%ADD10R,1.100000X1.000000*%
%ADD11R,1.000000X1.100000*%
%ADD12R,1.300000X1.500000*%
%ADD13C,0.080400*%


D10*
X130566Y606965D03*
X147566Y606965D03*
X147530Y528032D03*
X130530Y528032D03*
X147530Y483089D03*
X130530Y483089D03*
X215232Y498202D03*
X232232Y498202D03*
D11*
X185621Y414324D03*
X185621Y431324D03*
X230847Y414324D03*
X230847Y431324D03*
D10*
X257770Y218968D03*
X274770Y218968D03*
X187699Y744315D03*
X204699Y744315D03*
X233333Y744315D03*
X250333Y744315D03*
X295967Y744315D03*
X278967Y744315D03*
X175136Y258505D03*
X192136Y258505D03*
X147530Y435761D03*
X130530Y435761D03*
X192136Y318805D03*
X175136Y318805D03*
D12*
X256770Y128866D03*
X275770Y128866D03*
X256770Y252699D03*
X275770Y252699D03*
D10*
X257770Y86585D03*
X274770Y86585D03*
X192136Y229977D03*
X175136Y229977D03*
X214930Y526360D03*
X231930Y526360D03*
D11*
X247164Y565225D03*
X264164Y565225D03*
X274770Y312167D03*
X257770Y312167D03*
X257770Y344140D03*
X274770Y344140D03*
X250333Y709626D03*
X233333Y709626D03*
X278967Y709626D03*
X295967Y709626D03*
X192136Y288805D03*
X175136Y288805D03*
X257770Y378378D03*
X274770Y378378D03*
X175136Y200379D03*
X192136Y200379D03*
X194966Y565225D03*
X177966Y565225D03*
X147530Y398726D03*
X130530Y398726D03*
X204699Y709626D03*
X187699Y709626D03*
X274770Y284939D03*
X257770Y284939D03*
D13*
X272722Y164561D02*
X278618Y164561D01*
X278618Y153665D01*
X272722Y153665D01*
X272722Y164561D01*
X272722Y154429D02*
X278618Y154429D01*
X278618Y155193D02*
X272722Y155193D01*
X272722Y155957D02*
X278618Y155957D01*
X278618Y156721D02*
X272722Y156721D01*
X272722Y157485D02*
X278618Y157485D01*
X278618Y158249D02*
X272722Y158249D01*
X272722Y159013D02*
X278618Y159013D01*
X278618Y159777D02*
X272722Y159777D01*
X272722Y160541D02*
X278618Y160541D01*
X278618Y161305D02*
X272722Y161305D01*
X272722Y162069D02*
X278618Y162069D01*
X278618Y162833D02*
X272722Y162833D01*
X272722Y163597D02*
X278618Y163597D01*
X278618Y164361D02*
X272722Y164361D01*
X269218Y164561D02*
X263322Y164561D01*
X269218Y164561D02*
X269218Y153665D01*
X263322Y153665D01*
X263322Y164561D01*
X263322Y154429D02*
X269218Y154429D01*
X269218Y155193D02*
X263322Y155193D01*
X263322Y155957D02*
X269218Y155957D01*
X269218Y156721D02*
X263322Y156721D01*
X263322Y157485D02*
X269218Y157485D01*
X269218Y158249D02*
X263322Y158249D01*
X263322Y159013D02*
X269218Y159013D01*
X269218Y159777D02*
X263322Y159777D01*
X263322Y160541D02*
X269218Y160541D01*
X269218Y161305D02*
X263322Y161305D01*
X263322Y162069D02*
X269218Y162069D01*
X269218Y162833D02*
X263322Y162833D01*
X263322Y163597D02*
X269218Y163597D01*
X269218Y164361D02*
X263322Y164361D01*
X259818Y164561D02*
X253922Y164561D01*
X259818Y164561D02*
X259818Y153665D01*
X253922Y153665D01*
X253922Y164561D01*
X253922Y154429D02*
X259818Y154429D01*
X259818Y155193D02*
X253922Y155193D01*
X253922Y155957D02*
X259818Y155957D01*
X259818Y156721D02*
X253922Y156721D01*
X253922Y157485D02*
X259818Y157485D01*
X259818Y158249D02*
X253922Y158249D01*
X253922Y159013D02*
X259818Y159013D01*
X259818Y159777D02*
X253922Y159777D01*
X253922Y160541D02*
X259818Y160541D01*
X259818Y161305D02*
X253922Y161305D01*
X253922Y162069D02*
X259818Y162069D01*
X259818Y162833D02*
X253922Y162833D01*
X253922Y163597D02*
X259818Y163597D01*
X259818Y164361D02*
X253922Y164361D01*
X253922Y188961D02*
X259818Y188961D01*
X259818Y178065D01*
X253922Y178065D01*
X253922Y188961D01*
X253922Y178829D02*
X259818Y178829D01*
X259818Y179593D02*
X253922Y179593D01*
X253922Y180357D02*
X259818Y180357D01*
X259818Y181121D02*
X253922Y181121D01*
X253922Y181885D02*
X259818Y181885D01*
X259818Y182649D02*
X253922Y182649D01*
X253922Y183413D02*
X259818Y183413D01*
X259818Y184177D02*
X253922Y184177D01*
X253922Y184941D02*
X259818Y184941D01*
X259818Y185705D02*
X253922Y185705D01*
X253922Y186469D02*
X259818Y186469D01*
X259818Y187233D02*
X253922Y187233D01*
X253922Y187997D02*
X259818Y187997D01*
X259818Y188761D02*
X253922Y188761D01*
X272722Y188961D02*
X278618Y188961D01*
X278618Y178065D01*
X272722Y178065D01*
X272722Y188961D01*
X272722Y178829D02*
X278618Y178829D01*
X278618Y179593D02*
X272722Y179593D01*
X272722Y180357D02*
X278618Y180357D01*
X278618Y181121D02*
X272722Y181121D01*
X272722Y181885D02*
X278618Y181885D01*
X278618Y182649D02*
X272722Y182649D01*
X272722Y183413D02*
X278618Y183413D01*
X278618Y184177D02*
X272722Y184177D01*
X272722Y184941D02*
X278618Y184941D01*
X278618Y185705D02*
X272722Y185705D01*
X272722Y186469D02*
X278618Y186469D01*
X278618Y187233D02*
X272722Y187233D01*
X272722Y187997D02*
X278618Y187997D01*
X278618Y188761D02*
X272722Y188761D01*
M02*
