G04 EAGLE Gerber RS-274X export*
G75*
%MOMM*%
%FSLAX34Y34*%
%LPD*%
%INSoldermask Top*%
%IPPOS*%
%AMOC8*
5,1,8,0,0,1.08239X$1,22.5*%
G01*
%ADD10C,5.203200*%
%ADD11R,1.053200X7.203200*%
%ADD12R,0.603200X1.603200*%
%ADD13R,1.953200X2.103200*%
%ADD14R,1.353200X1.653200*%
%ADD15C,1.253200*%
%ADD16C,1.727200*%
%ADD17R,1.003200X1.003200*%
%ADD18P,1.869504X8X292.500000*%
%ADD19R,1.703200X1.503200*%
%ADD20R,1.203200X1.903200*%
%ADD21C,0.343072*%
%ADD22C,0.353406*%
%ADD23R,7.203200X1.053200*%
%ADD24C,1.320800*%
%ADD25R,1.503200X2.103200*%
%ADD26C,0.959600*%


D10*
X50000Y750000D03*
X400000Y750000D03*
X400000Y50000D03*
X50000Y50000D03*
D11*
X232363Y764200D03*
X217363Y764200D03*
D12*
X217981Y40619D03*
X224481Y40619D03*
X230981Y40619D03*
X237481Y40619D03*
X243981Y40619D03*
D13*
X219731Y14119D03*
X242231Y14119D03*
D14*
X207781Y36419D03*
X254181Y36419D03*
D15*
X195231Y19369D02*
X195231Y8869D01*
X266731Y8869D02*
X266731Y19369D01*
D16*
X166730Y665208D02*
X151490Y665208D01*
X151490Y690608D02*
X166730Y690608D01*
D17*
X176276Y572055D03*
X191276Y572055D03*
X269869Y572055D03*
X254869Y572055D03*
D18*
X173433Y157250D03*
X198833Y157250D03*
X173433Y131850D03*
X198833Y131850D03*
X173433Y106450D03*
X198833Y106450D03*
D16*
X186763Y599489D02*
X186763Y614729D01*
X212163Y614729D02*
X212163Y599489D01*
X237563Y599489D02*
X237563Y614729D01*
X262963Y614729D02*
X262963Y599489D01*
D19*
X280616Y668408D03*
X280616Y687408D03*
D20*
X246957Y100350D03*
X284957Y100350D03*
X246957Y163350D03*
X284957Y163350D03*
D21*
X195239Y348217D02*
X195239Y349619D01*
X195239Y348217D02*
X181037Y348217D01*
X181037Y349619D01*
X195239Y349619D01*
X195239Y344619D02*
X195239Y343217D01*
X181037Y343217D01*
X181037Y344619D01*
X195239Y344619D01*
X195239Y339619D02*
X195239Y338217D01*
X181037Y338217D01*
X181037Y339619D01*
X195239Y339619D01*
X195239Y334619D02*
X195239Y333217D01*
X181037Y333217D01*
X181037Y334619D01*
X195239Y334619D01*
X195239Y329619D02*
X195239Y328217D01*
X181037Y328217D01*
X181037Y329619D01*
X195239Y329619D01*
X195239Y324619D02*
X195239Y323217D01*
X181037Y323217D01*
X181037Y324619D01*
X195239Y324619D01*
X195239Y319619D02*
X195239Y318217D01*
X181037Y318217D01*
X181037Y319619D01*
X195239Y319619D01*
X195239Y314619D02*
X195239Y313217D01*
X181037Y313217D01*
X181037Y314619D01*
X195239Y314619D01*
X195239Y309619D02*
X195239Y308217D01*
X181037Y308217D01*
X181037Y309619D01*
X195239Y309619D01*
X195239Y304619D02*
X195239Y303217D01*
X181037Y303217D01*
X181037Y304619D01*
X195239Y304619D01*
X195239Y299619D02*
X195239Y298217D01*
X181037Y298217D01*
X181037Y299619D01*
X195239Y299619D01*
X195239Y294619D02*
X195239Y293217D01*
X181037Y293217D01*
X181037Y294619D01*
X195239Y294619D01*
X201737Y272517D02*
X203139Y272517D01*
X201737Y272517D02*
X201737Y286719D01*
X203139Y286719D01*
X203139Y272517D01*
X203139Y275776D02*
X201737Y275776D01*
X201737Y279035D02*
X203139Y279035D01*
X203139Y282294D02*
X201737Y282294D01*
X201737Y285553D02*
X203139Y285553D01*
X206737Y272517D02*
X208139Y272517D01*
X206737Y272517D02*
X206737Y286719D01*
X208139Y286719D01*
X208139Y272517D01*
X208139Y275776D02*
X206737Y275776D01*
X206737Y279035D02*
X208139Y279035D01*
X208139Y282294D02*
X206737Y282294D01*
X206737Y285553D02*
X208139Y285553D01*
X211737Y272517D02*
X213139Y272517D01*
X211737Y272517D02*
X211737Y286719D01*
X213139Y286719D01*
X213139Y272517D01*
X213139Y275776D02*
X211737Y275776D01*
X211737Y279035D02*
X213139Y279035D01*
X213139Y282294D02*
X211737Y282294D01*
X211737Y285553D02*
X213139Y285553D01*
X216737Y272517D02*
X218139Y272517D01*
X216737Y272517D02*
X216737Y286719D01*
X218139Y286719D01*
X218139Y272517D01*
X218139Y275776D02*
X216737Y275776D01*
X216737Y279035D02*
X218139Y279035D01*
X218139Y282294D02*
X216737Y282294D01*
X216737Y285553D02*
X218139Y285553D01*
X221737Y272517D02*
X223139Y272517D01*
X221737Y272517D02*
X221737Y286719D01*
X223139Y286719D01*
X223139Y272517D01*
X223139Y275776D02*
X221737Y275776D01*
X221737Y279035D02*
X223139Y279035D01*
X223139Y282294D02*
X221737Y282294D01*
X221737Y285553D02*
X223139Y285553D01*
X226737Y272517D02*
X228139Y272517D01*
X226737Y272517D02*
X226737Y286719D01*
X228139Y286719D01*
X228139Y272517D01*
X228139Y275776D02*
X226737Y275776D01*
X226737Y279035D02*
X228139Y279035D01*
X228139Y282294D02*
X226737Y282294D01*
X226737Y285553D02*
X228139Y285553D01*
X231737Y272517D02*
X233139Y272517D01*
X231737Y272517D02*
X231737Y286719D01*
X233139Y286719D01*
X233139Y272517D01*
X233139Y275776D02*
X231737Y275776D01*
X231737Y279035D02*
X233139Y279035D01*
X233139Y282294D02*
X231737Y282294D01*
X231737Y285553D02*
X233139Y285553D01*
X236737Y272517D02*
X238139Y272517D01*
X236737Y272517D02*
X236737Y286719D01*
X238139Y286719D01*
X238139Y272517D01*
X238139Y275776D02*
X236737Y275776D01*
X236737Y279035D02*
X238139Y279035D01*
X238139Y282294D02*
X236737Y282294D01*
X236737Y285553D02*
X238139Y285553D01*
X241737Y272517D02*
X243139Y272517D01*
X241737Y272517D02*
X241737Y286719D01*
X243139Y286719D01*
X243139Y272517D01*
X243139Y275776D02*
X241737Y275776D01*
X241737Y279035D02*
X243139Y279035D01*
X243139Y282294D02*
X241737Y282294D01*
X241737Y285553D02*
X243139Y285553D01*
X246737Y272517D02*
X248139Y272517D01*
X246737Y272517D02*
X246737Y286719D01*
X248139Y286719D01*
X248139Y272517D01*
X248139Y275776D02*
X246737Y275776D01*
X246737Y279035D02*
X248139Y279035D01*
X248139Y282294D02*
X246737Y282294D01*
X246737Y285553D02*
X248139Y285553D01*
X251737Y272517D02*
X253139Y272517D01*
X251737Y272517D02*
X251737Y286719D01*
X253139Y286719D01*
X253139Y272517D01*
X253139Y275776D02*
X251737Y275776D01*
X251737Y279035D02*
X253139Y279035D01*
X253139Y282294D02*
X251737Y282294D01*
X251737Y285553D02*
X253139Y285553D01*
X256737Y272517D02*
X258139Y272517D01*
X256737Y272517D02*
X256737Y286719D01*
X258139Y286719D01*
X258139Y272517D01*
X258139Y275776D02*
X256737Y275776D01*
X256737Y279035D02*
X258139Y279035D01*
X258139Y282294D02*
X256737Y282294D01*
X256737Y285553D02*
X258139Y285553D01*
X278839Y293217D02*
X278839Y294619D01*
X278839Y293217D02*
X264637Y293217D01*
X264637Y294619D01*
X278839Y294619D01*
X278839Y298217D02*
X278839Y299619D01*
X278839Y298217D02*
X264637Y298217D01*
X264637Y299619D01*
X278839Y299619D01*
X278839Y303217D02*
X278839Y304619D01*
X278839Y303217D02*
X264637Y303217D01*
X264637Y304619D01*
X278839Y304619D01*
X278839Y308217D02*
X278839Y309619D01*
X278839Y308217D02*
X264637Y308217D01*
X264637Y309619D01*
X278839Y309619D01*
X278839Y313217D02*
X278839Y314619D01*
X278839Y313217D02*
X264637Y313217D01*
X264637Y314619D01*
X278839Y314619D01*
X278839Y318217D02*
X278839Y319619D01*
X278839Y318217D02*
X264637Y318217D01*
X264637Y319619D01*
X278839Y319619D01*
X278839Y323217D02*
X278839Y324619D01*
X278839Y323217D02*
X264637Y323217D01*
X264637Y324619D01*
X278839Y324619D01*
X278839Y328217D02*
X278839Y329619D01*
X278839Y328217D02*
X264637Y328217D01*
X264637Y329619D01*
X278839Y329619D01*
X278839Y333217D02*
X278839Y334619D01*
X278839Y333217D02*
X264637Y333217D01*
X264637Y334619D01*
X278839Y334619D01*
X278839Y338217D02*
X278839Y339619D01*
X278839Y338217D02*
X264637Y338217D01*
X264637Y339619D01*
X278839Y339619D01*
X278839Y343217D02*
X278839Y344619D01*
X278839Y343217D02*
X264637Y343217D01*
X264637Y344619D01*
X278839Y344619D01*
X278839Y348217D02*
X278839Y349619D01*
X278839Y348217D02*
X264637Y348217D01*
X264637Y349619D01*
X278839Y349619D01*
X258139Y356117D02*
X256737Y356117D01*
X256737Y370319D01*
X258139Y370319D01*
X258139Y356117D01*
X258139Y359376D02*
X256737Y359376D01*
X256737Y362635D02*
X258139Y362635D01*
X258139Y365894D02*
X256737Y365894D01*
X256737Y369153D02*
X258139Y369153D01*
X253139Y356117D02*
X251737Y356117D01*
X251737Y370319D01*
X253139Y370319D01*
X253139Y356117D01*
X253139Y359376D02*
X251737Y359376D01*
X251737Y362635D02*
X253139Y362635D01*
X253139Y365894D02*
X251737Y365894D01*
X251737Y369153D02*
X253139Y369153D01*
X248139Y356117D02*
X246737Y356117D01*
X246737Y370319D01*
X248139Y370319D01*
X248139Y356117D01*
X248139Y359376D02*
X246737Y359376D01*
X246737Y362635D02*
X248139Y362635D01*
X248139Y365894D02*
X246737Y365894D01*
X246737Y369153D02*
X248139Y369153D01*
X243139Y356117D02*
X241737Y356117D01*
X241737Y370319D01*
X243139Y370319D01*
X243139Y356117D01*
X243139Y359376D02*
X241737Y359376D01*
X241737Y362635D02*
X243139Y362635D01*
X243139Y365894D02*
X241737Y365894D01*
X241737Y369153D02*
X243139Y369153D01*
X238139Y356117D02*
X236737Y356117D01*
X236737Y370319D01*
X238139Y370319D01*
X238139Y356117D01*
X238139Y359376D02*
X236737Y359376D01*
X236737Y362635D02*
X238139Y362635D01*
X238139Y365894D02*
X236737Y365894D01*
X236737Y369153D02*
X238139Y369153D01*
X233139Y356117D02*
X231737Y356117D01*
X231737Y370319D01*
X233139Y370319D01*
X233139Y356117D01*
X233139Y359376D02*
X231737Y359376D01*
X231737Y362635D02*
X233139Y362635D01*
X233139Y365894D02*
X231737Y365894D01*
X231737Y369153D02*
X233139Y369153D01*
X228139Y356117D02*
X226737Y356117D01*
X226737Y370319D01*
X228139Y370319D01*
X228139Y356117D01*
X228139Y359376D02*
X226737Y359376D01*
X226737Y362635D02*
X228139Y362635D01*
X228139Y365894D02*
X226737Y365894D01*
X226737Y369153D02*
X228139Y369153D01*
X223139Y356117D02*
X221737Y356117D01*
X221737Y370319D01*
X223139Y370319D01*
X223139Y356117D01*
X223139Y359376D02*
X221737Y359376D01*
X221737Y362635D02*
X223139Y362635D01*
X223139Y365894D02*
X221737Y365894D01*
X221737Y369153D02*
X223139Y369153D01*
X218139Y356117D02*
X216737Y356117D01*
X216737Y370319D01*
X218139Y370319D01*
X218139Y356117D01*
X218139Y359376D02*
X216737Y359376D01*
X216737Y362635D02*
X218139Y362635D01*
X218139Y365894D02*
X216737Y365894D01*
X216737Y369153D02*
X218139Y369153D01*
X213139Y356117D02*
X211737Y356117D01*
X211737Y370319D01*
X213139Y370319D01*
X213139Y356117D01*
X213139Y359376D02*
X211737Y359376D01*
X211737Y362635D02*
X213139Y362635D01*
X213139Y365894D02*
X211737Y365894D01*
X211737Y369153D02*
X213139Y369153D01*
X208139Y356117D02*
X206737Y356117D01*
X206737Y370319D01*
X208139Y370319D01*
X208139Y356117D01*
X208139Y359376D02*
X206737Y359376D01*
X206737Y362635D02*
X208139Y362635D01*
X208139Y365894D02*
X206737Y365894D01*
X206737Y369153D02*
X208139Y369153D01*
X203139Y356117D02*
X201737Y356117D01*
X201737Y370319D01*
X203139Y370319D01*
X203139Y356117D01*
X203139Y359376D02*
X201737Y359376D01*
X201737Y362635D02*
X203139Y362635D01*
X203139Y365894D02*
X201737Y365894D01*
X201737Y369153D02*
X203139Y369153D01*
D22*
X208062Y647634D02*
X208062Y661932D01*
X208062Y647634D02*
X203564Y647634D01*
X203564Y661932D01*
X208062Y661932D01*
X208062Y650991D02*
X203564Y650991D01*
X203564Y654348D02*
X208062Y654348D01*
X208062Y657705D02*
X203564Y657705D01*
X203564Y661062D02*
X208062Y661062D01*
X220762Y661932D02*
X220762Y647634D01*
X216264Y647634D01*
X216264Y661932D01*
X220762Y661932D01*
X220762Y650991D02*
X216264Y650991D01*
X216264Y654348D02*
X220762Y654348D01*
X220762Y657705D02*
X216264Y657705D01*
X216264Y661062D02*
X220762Y661062D01*
X233462Y661932D02*
X233462Y647634D01*
X228964Y647634D01*
X228964Y661932D01*
X233462Y661932D01*
X233462Y650991D02*
X228964Y650991D01*
X228964Y654348D02*
X233462Y654348D01*
X233462Y657705D02*
X228964Y657705D01*
X228964Y661062D02*
X233462Y661062D01*
X246162Y661932D02*
X246162Y647634D01*
X241664Y647634D01*
X241664Y661932D01*
X246162Y661932D01*
X246162Y650991D02*
X241664Y650991D01*
X241664Y654348D02*
X246162Y654348D01*
X246162Y657705D02*
X241664Y657705D01*
X241664Y661062D02*
X246162Y661062D01*
X246162Y701034D02*
X246162Y715332D01*
X246162Y701034D02*
X241664Y701034D01*
X241664Y715332D01*
X246162Y715332D01*
X246162Y704391D02*
X241664Y704391D01*
X241664Y707748D02*
X246162Y707748D01*
X246162Y711105D02*
X241664Y711105D01*
X241664Y714462D02*
X246162Y714462D01*
X233462Y715332D02*
X233462Y701034D01*
X228964Y701034D01*
X228964Y715332D01*
X233462Y715332D01*
X233462Y704391D02*
X228964Y704391D01*
X228964Y707748D02*
X233462Y707748D01*
X233462Y711105D02*
X228964Y711105D01*
X228964Y714462D02*
X233462Y714462D01*
X220762Y715332D02*
X220762Y701034D01*
X216264Y701034D01*
X216264Y715332D01*
X220762Y715332D01*
X220762Y704391D02*
X216264Y704391D01*
X216264Y707748D02*
X220762Y707748D01*
X220762Y711105D02*
X216264Y711105D01*
X216264Y714462D02*
X220762Y714462D01*
X208062Y715332D02*
X208062Y701034D01*
X203564Y701034D01*
X203564Y715332D01*
X208062Y715332D01*
X208062Y704391D02*
X203564Y704391D01*
X203564Y707748D02*
X208062Y707748D01*
X208062Y711105D02*
X203564Y711105D01*
X203564Y714462D02*
X208062Y714462D01*
D23*
X38132Y195299D03*
X38132Y180299D03*
X38132Y165299D03*
X38132Y337299D03*
X38132Y322299D03*
X38132Y307299D03*
X38132Y479298D03*
X38132Y464298D03*
X38132Y449298D03*
X38132Y621298D03*
X38132Y606298D03*
X38132Y591298D03*
D24*
X199463Y470612D02*
X199463Y459436D01*
X250263Y459436D02*
X250263Y470612D01*
D25*
X252363Y545381D03*
X197363Y545381D03*
X197363Y513381D03*
X252363Y513381D03*
D26*
X234696Y57912D03*
X292608Y309372D03*
X286512Y291084D03*
X257556Y332232D03*
X316051Y265907D03*
X305916Y153649D03*
X210170Y61528D03*
X236220Y672084D03*
X225031Y511984D03*
X161511Y460312D03*
X212862Y511462D03*
X180939Y477734D03*
X167640Y487680D03*
X233172Y579120D03*
X221817Y560480D03*
X175260Y170688D03*
X193548Y219456D03*
X230124Y377952D03*
X213360Y313944D03*
X192024Y277368D03*
X192024Y246888D03*
X205740Y722376D03*
X233613Y691758D03*
X102237Y274637D03*
X71442Y431618D03*
X67285Y578518D03*
X218692Y676126D03*
X125136Y214447D03*
X85287Y180748D03*
X83665Y460071D03*
X91572Y330497D03*
X83953Y603434D03*
X204216Y313944D03*
X225064Y346076D03*
X230658Y294985D03*
X125563Y296542D03*
X118210Y417768D03*
X123167Y374369D03*
X169292Y340426D03*
X281931Y61569D03*
M02*
