G04 EAGLE Gerber RS-274X export*
G75*
%MOMM*%
%FSLAX34Y34*%
%LPD*%
%INSolderpaste Top*%
%IPPOS*%
%AMOC8*
5,1,8,0,0,1.08239X$1,22.5*%
G01*
%ADD10R,0.850000X7.000000*%
%ADD11R,0.400000X1.400000*%
%ADD12R,1.750000X1.900000*%
%ADD13R,1.150000X1.450000*%
%ADD14R,0.800000X0.800000*%
%ADD15R,1.500000X1.300000*%
%ADD16R,1.000000X1.700000*%
%ADD17C,0.140000*%
%ADD18C,0.150000*%
%ADD19R,7.000000X0.850000*%
%ADD20R,1.300000X1.900000*%


D10*
X232363Y764200D03*
X217363Y764200D03*
D11*
X217981Y40619D03*
X224481Y40619D03*
X230981Y40619D03*
X237481Y40619D03*
X243981Y40619D03*
D12*
X219731Y14119D03*
X242231Y14119D03*
D13*
X207781Y36419D03*
X254181Y36419D03*
D14*
X176276Y572055D03*
X191276Y572055D03*
X269869Y572055D03*
X254869Y572055D03*
D15*
X280616Y668408D03*
X280616Y687408D03*
D16*
X246957Y100350D03*
X284957Y100350D03*
X246957Y163350D03*
X284957Y163350D03*
D17*
X195238Y348218D02*
X195238Y349618D01*
X195238Y348218D02*
X181038Y348218D01*
X181038Y349618D01*
X195238Y349618D01*
X195238Y349548D02*
X181038Y349548D01*
X195238Y344618D02*
X195238Y343218D01*
X181038Y343218D01*
X181038Y344618D01*
X195238Y344618D01*
X195238Y344548D02*
X181038Y344548D01*
X195238Y339618D02*
X195238Y338218D01*
X181038Y338218D01*
X181038Y339618D01*
X195238Y339618D01*
X195238Y339548D02*
X181038Y339548D01*
X195238Y334618D02*
X195238Y333218D01*
X181038Y333218D01*
X181038Y334618D01*
X195238Y334618D01*
X195238Y334548D02*
X181038Y334548D01*
X195238Y329618D02*
X195238Y328218D01*
X181038Y328218D01*
X181038Y329618D01*
X195238Y329618D01*
X195238Y329548D02*
X181038Y329548D01*
X195238Y324618D02*
X195238Y323218D01*
X181038Y323218D01*
X181038Y324618D01*
X195238Y324618D01*
X195238Y324548D02*
X181038Y324548D01*
X195238Y319618D02*
X195238Y318218D01*
X181038Y318218D01*
X181038Y319618D01*
X195238Y319618D01*
X195238Y319548D02*
X181038Y319548D01*
X195238Y314618D02*
X195238Y313218D01*
X181038Y313218D01*
X181038Y314618D01*
X195238Y314618D01*
X195238Y314548D02*
X181038Y314548D01*
X195238Y309618D02*
X195238Y308218D01*
X181038Y308218D01*
X181038Y309618D01*
X195238Y309618D01*
X195238Y309548D02*
X181038Y309548D01*
X195238Y304618D02*
X195238Y303218D01*
X181038Y303218D01*
X181038Y304618D01*
X195238Y304618D01*
X195238Y304548D02*
X181038Y304548D01*
X195238Y299618D02*
X195238Y298218D01*
X181038Y298218D01*
X181038Y299618D01*
X195238Y299618D01*
X195238Y299548D02*
X181038Y299548D01*
X195238Y294618D02*
X195238Y293218D01*
X181038Y293218D01*
X181038Y294618D01*
X195238Y294618D01*
X195238Y294548D02*
X181038Y294548D01*
X201738Y272518D02*
X203138Y272518D01*
X201738Y272518D02*
X201738Y286718D01*
X203138Y286718D01*
X203138Y272518D01*
X203138Y273848D02*
X201738Y273848D01*
X201738Y275178D02*
X203138Y275178D01*
X203138Y276508D02*
X201738Y276508D01*
X201738Y277838D02*
X203138Y277838D01*
X203138Y279168D02*
X201738Y279168D01*
X201738Y280498D02*
X203138Y280498D01*
X203138Y281828D02*
X201738Y281828D01*
X201738Y283158D02*
X203138Y283158D01*
X203138Y284488D02*
X201738Y284488D01*
X201738Y285818D02*
X203138Y285818D01*
X206738Y272518D02*
X208138Y272518D01*
X206738Y272518D02*
X206738Y286718D01*
X208138Y286718D01*
X208138Y272518D01*
X208138Y273848D02*
X206738Y273848D01*
X206738Y275178D02*
X208138Y275178D01*
X208138Y276508D02*
X206738Y276508D01*
X206738Y277838D02*
X208138Y277838D01*
X208138Y279168D02*
X206738Y279168D01*
X206738Y280498D02*
X208138Y280498D01*
X208138Y281828D02*
X206738Y281828D01*
X206738Y283158D02*
X208138Y283158D01*
X208138Y284488D02*
X206738Y284488D01*
X206738Y285818D02*
X208138Y285818D01*
X211738Y272518D02*
X213138Y272518D01*
X211738Y272518D02*
X211738Y286718D01*
X213138Y286718D01*
X213138Y272518D01*
X213138Y273848D02*
X211738Y273848D01*
X211738Y275178D02*
X213138Y275178D01*
X213138Y276508D02*
X211738Y276508D01*
X211738Y277838D02*
X213138Y277838D01*
X213138Y279168D02*
X211738Y279168D01*
X211738Y280498D02*
X213138Y280498D01*
X213138Y281828D02*
X211738Y281828D01*
X211738Y283158D02*
X213138Y283158D01*
X213138Y284488D02*
X211738Y284488D01*
X211738Y285818D02*
X213138Y285818D01*
X216738Y272518D02*
X218138Y272518D01*
X216738Y272518D02*
X216738Y286718D01*
X218138Y286718D01*
X218138Y272518D01*
X218138Y273848D02*
X216738Y273848D01*
X216738Y275178D02*
X218138Y275178D01*
X218138Y276508D02*
X216738Y276508D01*
X216738Y277838D02*
X218138Y277838D01*
X218138Y279168D02*
X216738Y279168D01*
X216738Y280498D02*
X218138Y280498D01*
X218138Y281828D02*
X216738Y281828D01*
X216738Y283158D02*
X218138Y283158D01*
X218138Y284488D02*
X216738Y284488D01*
X216738Y285818D02*
X218138Y285818D01*
X221738Y272518D02*
X223138Y272518D01*
X221738Y272518D02*
X221738Y286718D01*
X223138Y286718D01*
X223138Y272518D01*
X223138Y273848D02*
X221738Y273848D01*
X221738Y275178D02*
X223138Y275178D01*
X223138Y276508D02*
X221738Y276508D01*
X221738Y277838D02*
X223138Y277838D01*
X223138Y279168D02*
X221738Y279168D01*
X221738Y280498D02*
X223138Y280498D01*
X223138Y281828D02*
X221738Y281828D01*
X221738Y283158D02*
X223138Y283158D01*
X223138Y284488D02*
X221738Y284488D01*
X221738Y285818D02*
X223138Y285818D01*
X226738Y272518D02*
X228138Y272518D01*
X226738Y272518D02*
X226738Y286718D01*
X228138Y286718D01*
X228138Y272518D01*
X228138Y273848D02*
X226738Y273848D01*
X226738Y275178D02*
X228138Y275178D01*
X228138Y276508D02*
X226738Y276508D01*
X226738Y277838D02*
X228138Y277838D01*
X228138Y279168D02*
X226738Y279168D01*
X226738Y280498D02*
X228138Y280498D01*
X228138Y281828D02*
X226738Y281828D01*
X226738Y283158D02*
X228138Y283158D01*
X228138Y284488D02*
X226738Y284488D01*
X226738Y285818D02*
X228138Y285818D01*
X231738Y272518D02*
X233138Y272518D01*
X231738Y272518D02*
X231738Y286718D01*
X233138Y286718D01*
X233138Y272518D01*
X233138Y273848D02*
X231738Y273848D01*
X231738Y275178D02*
X233138Y275178D01*
X233138Y276508D02*
X231738Y276508D01*
X231738Y277838D02*
X233138Y277838D01*
X233138Y279168D02*
X231738Y279168D01*
X231738Y280498D02*
X233138Y280498D01*
X233138Y281828D02*
X231738Y281828D01*
X231738Y283158D02*
X233138Y283158D01*
X233138Y284488D02*
X231738Y284488D01*
X231738Y285818D02*
X233138Y285818D01*
X236738Y272518D02*
X238138Y272518D01*
X236738Y272518D02*
X236738Y286718D01*
X238138Y286718D01*
X238138Y272518D01*
X238138Y273848D02*
X236738Y273848D01*
X236738Y275178D02*
X238138Y275178D01*
X238138Y276508D02*
X236738Y276508D01*
X236738Y277838D02*
X238138Y277838D01*
X238138Y279168D02*
X236738Y279168D01*
X236738Y280498D02*
X238138Y280498D01*
X238138Y281828D02*
X236738Y281828D01*
X236738Y283158D02*
X238138Y283158D01*
X238138Y284488D02*
X236738Y284488D01*
X236738Y285818D02*
X238138Y285818D01*
X241738Y272518D02*
X243138Y272518D01*
X241738Y272518D02*
X241738Y286718D01*
X243138Y286718D01*
X243138Y272518D01*
X243138Y273848D02*
X241738Y273848D01*
X241738Y275178D02*
X243138Y275178D01*
X243138Y276508D02*
X241738Y276508D01*
X241738Y277838D02*
X243138Y277838D01*
X243138Y279168D02*
X241738Y279168D01*
X241738Y280498D02*
X243138Y280498D01*
X243138Y281828D02*
X241738Y281828D01*
X241738Y283158D02*
X243138Y283158D01*
X243138Y284488D02*
X241738Y284488D01*
X241738Y285818D02*
X243138Y285818D01*
X246738Y272518D02*
X248138Y272518D01*
X246738Y272518D02*
X246738Y286718D01*
X248138Y286718D01*
X248138Y272518D01*
X248138Y273848D02*
X246738Y273848D01*
X246738Y275178D02*
X248138Y275178D01*
X248138Y276508D02*
X246738Y276508D01*
X246738Y277838D02*
X248138Y277838D01*
X248138Y279168D02*
X246738Y279168D01*
X246738Y280498D02*
X248138Y280498D01*
X248138Y281828D02*
X246738Y281828D01*
X246738Y283158D02*
X248138Y283158D01*
X248138Y284488D02*
X246738Y284488D01*
X246738Y285818D02*
X248138Y285818D01*
X251738Y272518D02*
X253138Y272518D01*
X251738Y272518D02*
X251738Y286718D01*
X253138Y286718D01*
X253138Y272518D01*
X253138Y273848D02*
X251738Y273848D01*
X251738Y275178D02*
X253138Y275178D01*
X253138Y276508D02*
X251738Y276508D01*
X251738Y277838D02*
X253138Y277838D01*
X253138Y279168D02*
X251738Y279168D01*
X251738Y280498D02*
X253138Y280498D01*
X253138Y281828D02*
X251738Y281828D01*
X251738Y283158D02*
X253138Y283158D01*
X253138Y284488D02*
X251738Y284488D01*
X251738Y285818D02*
X253138Y285818D01*
X256738Y272518D02*
X258138Y272518D01*
X256738Y272518D02*
X256738Y286718D01*
X258138Y286718D01*
X258138Y272518D01*
X258138Y273848D02*
X256738Y273848D01*
X256738Y275178D02*
X258138Y275178D01*
X258138Y276508D02*
X256738Y276508D01*
X256738Y277838D02*
X258138Y277838D01*
X258138Y279168D02*
X256738Y279168D01*
X256738Y280498D02*
X258138Y280498D01*
X258138Y281828D02*
X256738Y281828D01*
X256738Y283158D02*
X258138Y283158D01*
X258138Y284488D02*
X256738Y284488D01*
X256738Y285818D02*
X258138Y285818D01*
X278838Y293218D02*
X278838Y294618D01*
X278838Y293218D02*
X264638Y293218D01*
X264638Y294618D01*
X278838Y294618D01*
X278838Y294548D02*
X264638Y294548D01*
X278838Y298218D02*
X278838Y299618D01*
X278838Y298218D02*
X264638Y298218D01*
X264638Y299618D01*
X278838Y299618D01*
X278838Y299548D02*
X264638Y299548D01*
X278838Y303218D02*
X278838Y304618D01*
X278838Y303218D02*
X264638Y303218D01*
X264638Y304618D01*
X278838Y304618D01*
X278838Y304548D02*
X264638Y304548D01*
X278838Y308218D02*
X278838Y309618D01*
X278838Y308218D02*
X264638Y308218D01*
X264638Y309618D01*
X278838Y309618D01*
X278838Y309548D02*
X264638Y309548D01*
X278838Y313218D02*
X278838Y314618D01*
X278838Y313218D02*
X264638Y313218D01*
X264638Y314618D01*
X278838Y314618D01*
X278838Y314548D02*
X264638Y314548D01*
X278838Y318218D02*
X278838Y319618D01*
X278838Y318218D02*
X264638Y318218D01*
X264638Y319618D01*
X278838Y319618D01*
X278838Y319548D02*
X264638Y319548D01*
X278838Y323218D02*
X278838Y324618D01*
X278838Y323218D02*
X264638Y323218D01*
X264638Y324618D01*
X278838Y324618D01*
X278838Y324548D02*
X264638Y324548D01*
X278838Y328218D02*
X278838Y329618D01*
X278838Y328218D02*
X264638Y328218D01*
X264638Y329618D01*
X278838Y329618D01*
X278838Y329548D02*
X264638Y329548D01*
X278838Y333218D02*
X278838Y334618D01*
X278838Y333218D02*
X264638Y333218D01*
X264638Y334618D01*
X278838Y334618D01*
X278838Y334548D02*
X264638Y334548D01*
X278838Y338218D02*
X278838Y339618D01*
X278838Y338218D02*
X264638Y338218D01*
X264638Y339618D01*
X278838Y339618D01*
X278838Y339548D02*
X264638Y339548D01*
X278838Y343218D02*
X278838Y344618D01*
X278838Y343218D02*
X264638Y343218D01*
X264638Y344618D01*
X278838Y344618D01*
X278838Y344548D02*
X264638Y344548D01*
X278838Y348218D02*
X278838Y349618D01*
X278838Y348218D02*
X264638Y348218D01*
X264638Y349618D01*
X278838Y349618D01*
X278838Y349548D02*
X264638Y349548D01*
X258138Y356118D02*
X256738Y356118D01*
X256738Y370318D01*
X258138Y370318D01*
X258138Y356118D01*
X258138Y357448D02*
X256738Y357448D01*
X256738Y358778D02*
X258138Y358778D01*
X258138Y360108D02*
X256738Y360108D01*
X256738Y361438D02*
X258138Y361438D01*
X258138Y362768D02*
X256738Y362768D01*
X256738Y364098D02*
X258138Y364098D01*
X258138Y365428D02*
X256738Y365428D01*
X256738Y366758D02*
X258138Y366758D01*
X258138Y368088D02*
X256738Y368088D01*
X256738Y369418D02*
X258138Y369418D01*
X253138Y356118D02*
X251738Y356118D01*
X251738Y370318D01*
X253138Y370318D01*
X253138Y356118D01*
X253138Y357448D02*
X251738Y357448D01*
X251738Y358778D02*
X253138Y358778D01*
X253138Y360108D02*
X251738Y360108D01*
X251738Y361438D02*
X253138Y361438D01*
X253138Y362768D02*
X251738Y362768D01*
X251738Y364098D02*
X253138Y364098D01*
X253138Y365428D02*
X251738Y365428D01*
X251738Y366758D02*
X253138Y366758D01*
X253138Y368088D02*
X251738Y368088D01*
X251738Y369418D02*
X253138Y369418D01*
X248138Y356118D02*
X246738Y356118D01*
X246738Y370318D01*
X248138Y370318D01*
X248138Y356118D01*
X248138Y357448D02*
X246738Y357448D01*
X246738Y358778D02*
X248138Y358778D01*
X248138Y360108D02*
X246738Y360108D01*
X246738Y361438D02*
X248138Y361438D01*
X248138Y362768D02*
X246738Y362768D01*
X246738Y364098D02*
X248138Y364098D01*
X248138Y365428D02*
X246738Y365428D01*
X246738Y366758D02*
X248138Y366758D01*
X248138Y368088D02*
X246738Y368088D01*
X246738Y369418D02*
X248138Y369418D01*
X243138Y356118D02*
X241738Y356118D01*
X241738Y370318D01*
X243138Y370318D01*
X243138Y356118D01*
X243138Y357448D02*
X241738Y357448D01*
X241738Y358778D02*
X243138Y358778D01*
X243138Y360108D02*
X241738Y360108D01*
X241738Y361438D02*
X243138Y361438D01*
X243138Y362768D02*
X241738Y362768D01*
X241738Y364098D02*
X243138Y364098D01*
X243138Y365428D02*
X241738Y365428D01*
X241738Y366758D02*
X243138Y366758D01*
X243138Y368088D02*
X241738Y368088D01*
X241738Y369418D02*
X243138Y369418D01*
X238138Y356118D02*
X236738Y356118D01*
X236738Y370318D01*
X238138Y370318D01*
X238138Y356118D01*
X238138Y357448D02*
X236738Y357448D01*
X236738Y358778D02*
X238138Y358778D01*
X238138Y360108D02*
X236738Y360108D01*
X236738Y361438D02*
X238138Y361438D01*
X238138Y362768D02*
X236738Y362768D01*
X236738Y364098D02*
X238138Y364098D01*
X238138Y365428D02*
X236738Y365428D01*
X236738Y366758D02*
X238138Y366758D01*
X238138Y368088D02*
X236738Y368088D01*
X236738Y369418D02*
X238138Y369418D01*
X233138Y356118D02*
X231738Y356118D01*
X231738Y370318D01*
X233138Y370318D01*
X233138Y356118D01*
X233138Y357448D02*
X231738Y357448D01*
X231738Y358778D02*
X233138Y358778D01*
X233138Y360108D02*
X231738Y360108D01*
X231738Y361438D02*
X233138Y361438D01*
X233138Y362768D02*
X231738Y362768D01*
X231738Y364098D02*
X233138Y364098D01*
X233138Y365428D02*
X231738Y365428D01*
X231738Y366758D02*
X233138Y366758D01*
X233138Y368088D02*
X231738Y368088D01*
X231738Y369418D02*
X233138Y369418D01*
X228138Y356118D02*
X226738Y356118D01*
X226738Y370318D01*
X228138Y370318D01*
X228138Y356118D01*
X228138Y357448D02*
X226738Y357448D01*
X226738Y358778D02*
X228138Y358778D01*
X228138Y360108D02*
X226738Y360108D01*
X226738Y361438D02*
X228138Y361438D01*
X228138Y362768D02*
X226738Y362768D01*
X226738Y364098D02*
X228138Y364098D01*
X228138Y365428D02*
X226738Y365428D01*
X226738Y366758D02*
X228138Y366758D01*
X228138Y368088D02*
X226738Y368088D01*
X226738Y369418D02*
X228138Y369418D01*
X223138Y356118D02*
X221738Y356118D01*
X221738Y370318D01*
X223138Y370318D01*
X223138Y356118D01*
X223138Y357448D02*
X221738Y357448D01*
X221738Y358778D02*
X223138Y358778D01*
X223138Y360108D02*
X221738Y360108D01*
X221738Y361438D02*
X223138Y361438D01*
X223138Y362768D02*
X221738Y362768D01*
X221738Y364098D02*
X223138Y364098D01*
X223138Y365428D02*
X221738Y365428D01*
X221738Y366758D02*
X223138Y366758D01*
X223138Y368088D02*
X221738Y368088D01*
X221738Y369418D02*
X223138Y369418D01*
X218138Y356118D02*
X216738Y356118D01*
X216738Y370318D01*
X218138Y370318D01*
X218138Y356118D01*
X218138Y357448D02*
X216738Y357448D01*
X216738Y358778D02*
X218138Y358778D01*
X218138Y360108D02*
X216738Y360108D01*
X216738Y361438D02*
X218138Y361438D01*
X218138Y362768D02*
X216738Y362768D01*
X216738Y364098D02*
X218138Y364098D01*
X218138Y365428D02*
X216738Y365428D01*
X216738Y366758D02*
X218138Y366758D01*
X218138Y368088D02*
X216738Y368088D01*
X216738Y369418D02*
X218138Y369418D01*
X213138Y356118D02*
X211738Y356118D01*
X211738Y370318D01*
X213138Y370318D01*
X213138Y356118D01*
X213138Y357448D02*
X211738Y357448D01*
X211738Y358778D02*
X213138Y358778D01*
X213138Y360108D02*
X211738Y360108D01*
X211738Y361438D02*
X213138Y361438D01*
X213138Y362768D02*
X211738Y362768D01*
X211738Y364098D02*
X213138Y364098D01*
X213138Y365428D02*
X211738Y365428D01*
X211738Y366758D02*
X213138Y366758D01*
X213138Y368088D02*
X211738Y368088D01*
X211738Y369418D02*
X213138Y369418D01*
X208138Y356118D02*
X206738Y356118D01*
X206738Y370318D01*
X208138Y370318D01*
X208138Y356118D01*
X208138Y357448D02*
X206738Y357448D01*
X206738Y358778D02*
X208138Y358778D01*
X208138Y360108D02*
X206738Y360108D01*
X206738Y361438D02*
X208138Y361438D01*
X208138Y362768D02*
X206738Y362768D01*
X206738Y364098D02*
X208138Y364098D01*
X208138Y365428D02*
X206738Y365428D01*
X206738Y366758D02*
X208138Y366758D01*
X208138Y368088D02*
X206738Y368088D01*
X206738Y369418D02*
X208138Y369418D01*
X203138Y356118D02*
X201738Y356118D01*
X201738Y370318D01*
X203138Y370318D01*
X203138Y356118D01*
X203138Y357448D02*
X201738Y357448D01*
X201738Y358778D02*
X203138Y358778D01*
X203138Y360108D02*
X201738Y360108D01*
X201738Y361438D02*
X203138Y361438D01*
X203138Y362768D02*
X201738Y362768D01*
X201738Y364098D02*
X203138Y364098D01*
X203138Y365428D02*
X201738Y365428D01*
X201738Y366758D02*
X203138Y366758D01*
X203138Y368088D02*
X201738Y368088D01*
X201738Y369418D02*
X203138Y369418D01*
D18*
X208063Y647633D02*
X208063Y661933D01*
X208063Y647633D02*
X203563Y647633D01*
X203563Y661933D01*
X208063Y661933D01*
X208063Y649058D02*
X203563Y649058D01*
X203563Y650483D02*
X208063Y650483D01*
X208063Y651908D02*
X203563Y651908D01*
X203563Y653333D02*
X208063Y653333D01*
X208063Y654758D02*
X203563Y654758D01*
X203563Y656183D02*
X208063Y656183D01*
X208063Y657608D02*
X203563Y657608D01*
X203563Y659033D02*
X208063Y659033D01*
X208063Y660458D02*
X203563Y660458D01*
X203563Y661883D02*
X208063Y661883D01*
X220763Y661933D02*
X220763Y647633D01*
X216263Y647633D01*
X216263Y661933D01*
X220763Y661933D01*
X220763Y649058D02*
X216263Y649058D01*
X216263Y650483D02*
X220763Y650483D01*
X220763Y651908D02*
X216263Y651908D01*
X216263Y653333D02*
X220763Y653333D01*
X220763Y654758D02*
X216263Y654758D01*
X216263Y656183D02*
X220763Y656183D01*
X220763Y657608D02*
X216263Y657608D01*
X216263Y659033D02*
X220763Y659033D01*
X220763Y660458D02*
X216263Y660458D01*
X216263Y661883D02*
X220763Y661883D01*
X233463Y661933D02*
X233463Y647633D01*
X228963Y647633D01*
X228963Y661933D01*
X233463Y661933D01*
X233463Y649058D02*
X228963Y649058D01*
X228963Y650483D02*
X233463Y650483D01*
X233463Y651908D02*
X228963Y651908D01*
X228963Y653333D02*
X233463Y653333D01*
X233463Y654758D02*
X228963Y654758D01*
X228963Y656183D02*
X233463Y656183D01*
X233463Y657608D02*
X228963Y657608D01*
X228963Y659033D02*
X233463Y659033D01*
X233463Y660458D02*
X228963Y660458D01*
X228963Y661883D02*
X233463Y661883D01*
X246163Y661933D02*
X246163Y647633D01*
X241663Y647633D01*
X241663Y661933D01*
X246163Y661933D01*
X246163Y649058D02*
X241663Y649058D01*
X241663Y650483D02*
X246163Y650483D01*
X246163Y651908D02*
X241663Y651908D01*
X241663Y653333D02*
X246163Y653333D01*
X246163Y654758D02*
X241663Y654758D01*
X241663Y656183D02*
X246163Y656183D01*
X246163Y657608D02*
X241663Y657608D01*
X241663Y659033D02*
X246163Y659033D01*
X246163Y660458D02*
X241663Y660458D01*
X241663Y661883D02*
X246163Y661883D01*
X246163Y701033D02*
X246163Y715333D01*
X246163Y701033D02*
X241663Y701033D01*
X241663Y715333D01*
X246163Y715333D01*
X246163Y702458D02*
X241663Y702458D01*
X241663Y703883D02*
X246163Y703883D01*
X246163Y705308D02*
X241663Y705308D01*
X241663Y706733D02*
X246163Y706733D01*
X246163Y708158D02*
X241663Y708158D01*
X241663Y709583D02*
X246163Y709583D01*
X246163Y711008D02*
X241663Y711008D01*
X241663Y712433D02*
X246163Y712433D01*
X246163Y713858D02*
X241663Y713858D01*
X241663Y715283D02*
X246163Y715283D01*
X233463Y715333D02*
X233463Y701033D01*
X228963Y701033D01*
X228963Y715333D01*
X233463Y715333D01*
X233463Y702458D02*
X228963Y702458D01*
X228963Y703883D02*
X233463Y703883D01*
X233463Y705308D02*
X228963Y705308D01*
X228963Y706733D02*
X233463Y706733D01*
X233463Y708158D02*
X228963Y708158D01*
X228963Y709583D02*
X233463Y709583D01*
X233463Y711008D02*
X228963Y711008D01*
X228963Y712433D02*
X233463Y712433D01*
X233463Y713858D02*
X228963Y713858D01*
X228963Y715283D02*
X233463Y715283D01*
X220763Y715333D02*
X220763Y701033D01*
X216263Y701033D01*
X216263Y715333D01*
X220763Y715333D01*
X220763Y702458D02*
X216263Y702458D01*
X216263Y703883D02*
X220763Y703883D01*
X220763Y705308D02*
X216263Y705308D01*
X216263Y706733D02*
X220763Y706733D01*
X220763Y708158D02*
X216263Y708158D01*
X216263Y709583D02*
X220763Y709583D01*
X220763Y711008D02*
X216263Y711008D01*
X216263Y712433D02*
X220763Y712433D01*
X220763Y713858D02*
X216263Y713858D01*
X216263Y715283D02*
X220763Y715283D01*
X208063Y715333D02*
X208063Y701033D01*
X203563Y701033D01*
X203563Y715333D01*
X208063Y715333D01*
X208063Y702458D02*
X203563Y702458D01*
X203563Y703883D02*
X208063Y703883D01*
X208063Y705308D02*
X203563Y705308D01*
X203563Y706733D02*
X208063Y706733D01*
X208063Y708158D02*
X203563Y708158D01*
X203563Y709583D02*
X208063Y709583D01*
X208063Y711008D02*
X203563Y711008D01*
X203563Y712433D02*
X208063Y712433D01*
X208063Y713858D02*
X203563Y713858D01*
X203563Y715283D02*
X208063Y715283D01*
D19*
X38132Y195299D03*
X38132Y180299D03*
X38132Y165299D03*
X38132Y337299D03*
X38132Y322299D03*
X38132Y307299D03*
X38132Y479298D03*
X38132Y464298D03*
X38132Y449298D03*
X38132Y621298D03*
X38132Y606298D03*
X38132Y591298D03*
D20*
X252363Y545381D03*
X197363Y545381D03*
X197363Y513381D03*
X252363Y513381D03*
M02*
