M48
;GenerationSoftware,Autodesk,EAGLE,9.6.2*%
;CreationDate,2023-03-12T15:50:06Z*%
FMAT,2
ICI,OFF
METRIC,TZ,000.000
T5C0.350
T4C0.450
T3C0.610
T2C1.016
T1C5.000
%
G90
M71
T1
X5000Y75000
X40000Y75000
X40000Y5000
X5000Y5000
T2
X17343Y10645
X15911Y66521
X15911Y69061
X17343Y15725
X19883Y15725
X17343Y13185
X19883Y13185
X19883Y10645
X18676Y60711
X21216Y60711
X23756Y60711
X26296Y60711
T3
X25026Y46502
X19946Y46502
T4
X19523Y1412
X26673Y1412
T5
X19202Y24689
X20574Y72238
X23361Y69176
X10224Y27464
X7144Y43162
X6729Y57852
X21869Y67613
X12514Y21445
X8529Y18075
X8366Y46007
X23622Y67208
X8395Y60343
X20422Y31394
X22506Y34608
X23066Y29499
X12556Y29654
X11821Y41777
X12317Y37437
X16929Y34043
X28193Y6157
X23470Y5791
X29261Y30937
X28651Y29108
X25756Y33223
X31605Y26591
X30592Y15365
X21017Y6153
X22503Y51198
X16151Y46031
X21286Y51146
X18094Y47773
X16764Y48768
X9157Y33050
X23317Y57912
X22182Y56048
X17526Y17069
X19355Y21946
X23012Y37795
X21336Y31394
X19202Y27737
M30